<?xml version="1.0" encoding="utf-8" standalone="no"?>
<!DOCTYPE svg PUBLIC "-//W3C//DTD SVG 1.1//EN"
  "http://www.w3.org/Graphics/SVG/1.1/DTD/svg11.dtd">
<svg xmlns:xlink="http://www.w3.org/1999/xlink" width="921.6pt" height="518.4pt" viewBox="0 0 921.6 518.4" xmlns="http://www.w3.org/2000/svg" version="1.1">
 <metadata>
  <rdf:RDF xmlns:dc="http://purl.org/dc/elements/1.1/" xmlns:cc="http://creativecommons.org/ns#" xmlns:rdf="http://www.w3.org/1999/02/22-rdf-syntax-ns#">
   <cc:Work>
    <dc:type rdf:resource="http://purl.org/dc/dcmitype/StillImage"/>
    <dc:date>2026-05-12T00:17:34.112244</dc:date>
    <dc:format>image/svg+xml</dc:format>
    <dc:creator>
     <cc:Agent>
      <dc:title>Matplotlib v3.10.8, https://matplotlib.org/</dc:title>
     </cc:Agent>
    </dc:creator>
   </cc:Work>
  </rdf:RDF>
 </metadata>
 <defs>
  <style type="text/css">*{stroke-linejoin: round; stroke-linecap: butt}</style>
 </defs>
 <g id="figure_1">
  <g id="patch_1">
   <path d="M 0 518.4 
L 921.6 518.4 
L 921.6 0 
L 0 0 
z
" style="fill: #ffffff"/>
  </g>
  <g id="axes_1">
   <g id="patch_2">
    <path d="M 70.173848 208.250784 
L 202.120392 208.250784 
Q 212.238992 208.250784 212.238992 198.163584 
L 212.238992 159.428736 
Q 212.238992 149.341536 202.120392 149.341536 
L 70.173848 149.341536 
Q 60.055248 149.341536 60.055248 159.428736 
L 60.055248 198.163584 
Q 60.055248 208.250784 70.173848 208.250784 
z
" clip-path="url(#pf4e9b7c389)" style="fill: #ffffff; stroke: #d6dee8; stroke-width: 1.2; stroke-linejoin: miter"/>
   </g>
   <g id="patch_3">
    <path d="M 288.735608 208.250784 
L 420.682152 208.250784 
Q 430.800752 208.250784 430.800752 198.163584 
L 430.800752 159.428736 
Q 430.800752 149.341536 420.682152 149.341536 
L 288.735608 149.341536 
Q 278.617008 149.341536 278.617008 159.428736 
L 278.617008 198.163584 
Q 278.617008 208.250784 288.735608 208.250784 
z
" clip-path="url(#pf4e9b7c389)" style="fill: #ffffff; stroke: #d6dee8; stroke-width: 1.2; stroke-linejoin: miter"/>
   </g>
   <g id="patch_4">
    <path d="M 210.956578 178.79616 
Q 245.431016 178.79616 276.774958 178.79616 
" clip-path="url(#pf4e9b7c389)" style="fill: none; stroke: #c75146; stroke-width: 2.8; stroke-linecap: round"/>
    <path d="M 269.574958 175.19616 
L 276.774958 178.79616 
L 269.574958 182.39616 
z
" clip-path="url(#pf4e9b7c389)" style="fill: #c75146; stroke: #c75146; stroke-width: 2.8; stroke-linecap: round"/>
   </g>
   <g id="patch_5">
    <path d="M 70.173848 284.913504 
L 202.120392 284.913504 
Q 212.238992 284.913504 212.238992 274.826304 
L 212.238992 236.091456 
Q 212.238992 226.004256 202.120392 226.004256 
L 70.173848 226.004256 
Q 60.055248 226.004256 60.055248 236.091456 
L 60.055248 274.826304 
Q 60.055248 284.913504 70.173848 284.913504 
z
" clip-path="url(#pf4e9b7c389)" style="fill: #ffffff; stroke: #d6dee8; stroke-width: 1.2; stroke-linejoin: miter"/>
   </g>
   <g id="patch_6">
    <path d="M 288.735608 284.913504 
L 420.682152 284.913504 
Q 430.800752 284.913504 430.800752 274.826304 
L 430.800752 236.091456 
Q 430.800752 226.004256 420.682152 226.004256 
L 288.735608 226.004256 
Q 278.617008 226.004256 278.617008 236.091456 
L 278.617008 274.826304 
Q 278.617008 284.913504 288.735608 284.913504 
z
" clip-path="url(#pf4e9b7c389)" style="fill: #ffffff; stroke: #d6dee8; stroke-width: 1.2; stroke-linejoin: miter"/>
   </g>
   <g id="patch_7">
    <path d="M 210.956578 255.45888 
Q 245.431016 255.45888 276.774958 255.45888 
" clip-path="url(#pf4e9b7c389)" style="fill: none; stroke: #c75146; stroke-width: 2.8; stroke-linecap: round"/>
    <path d="M 269.574958 251.85888 
L 276.774958 255.45888 
L 269.574958 259.05888 
z
" clip-path="url(#pf4e9b7c389)" style="fill: #c75146; stroke: #c75146; stroke-width: 2.8; stroke-linecap: round"/>
   </g>
   <g id="patch_8">
    <path d="M 70.173848 361.576224 
L 202.120392 361.576224 
Q 212.238992 361.576224 212.238992 351.489024 
L 212.238992 312.754176 
Q 212.238992 302.666976 202.120392 302.666976 
L 70.173848 302.666976 
Q 60.055248 302.666976 60.055248 312.754176 
L 60.055248 351.489024 
Q 60.055248 361.576224 70.173848 361.576224 
z
" clip-path="url(#pf4e9b7c389)" style="fill: #ffffff; stroke: #d6dee8; stroke-width: 1.2; stroke-linejoin: miter"/>
   </g>
   <g id="patch_9">
    <path d="M 288.735608 361.576224 
L 420.682152 361.576224 
Q 430.800752 361.576224 430.800752 351.489024 
L 430.800752 312.754176 
Q 430.800752 302.666976 420.682152 302.666976 
L 288.735608 302.666976 
Q 278.617008 302.666976 278.617008 312.754176 
L 278.617008 351.489024 
Q 278.617008 361.576224 288.735608 361.576224 
z
" clip-path="url(#pf4e9b7c389)" style="fill: #ffffff; stroke: #d6dee8; stroke-width: 1.2; stroke-linejoin: miter"/>
   </g>
   <g id="patch_10">
    <path d="M 210.956578 332.1216 
Q 245.431016 332.1216 276.774958 332.1216 
" clip-path="url(#pf4e9b7c389)" style="fill: none; stroke: #c75146; stroke-width: 2.8; stroke-linecap: round"/>
    <path d="M 269.574958 328.5216 
L 276.774958 332.1216 
L 269.574958 335.7216 
z
" clip-path="url(#pf4e9b7c389)" style="fill: #c75146; stroke: #c75146; stroke-width: 2.8; stroke-linecap: round"/>
   </g>
   <g id="text_1">
    <!-- Data-only graph -->
    <g style="fill: #111827" transform="translate(158.731594 83.092754) scale(0.19 -0.19)">
     <defs>
      <path id="DejaVuSans-Bold-44" d="M 1791 3756 
L 1791 909 
L 2222 909 
Q 2959 909 3348 1275 
Q 3738 1641 3738 2338 
Q 3738 3031 3350 3393 
Q 2963 3756 2222 3756 
L 1791 3756 
z
M 588 4666 
L 1856 4666 
Q 2919 4666 3439 4514 
Q 3959 4363 4331 4000 
Q 4659 3684 4818 3271 
Q 4978 2859 4978 2338 
Q 4978 1809 4818 1395 
Q 4659 981 4331 666 
Q 3956 303 3431 151 
Q 2906 0 1856 0 
L 588 0 
L 588 4666 
z
" transform="scale(0.015625)"/>
      <path id="DejaVuSans-Bold-61" d="M 2106 1575 
Q 1756 1575 1579 1456 
Q 1403 1338 1403 1106 
Q 1403 894 1545 773 
Q 1688 653 1941 653 
Q 2256 653 2472 879 
Q 2688 1106 2688 1447 
L 2688 1575 
L 2106 1575 
z
M 3816 1997 
L 3816 0 
L 2688 0 
L 2688 519 
Q 2463 200 2181 54 
Q 1900 -91 1497 -91 
Q 953 -91 614 226 
Q 275 544 275 1050 
Q 275 1666 698 1953 
Q 1122 2241 2028 2241 
L 2688 2241 
L 2688 2328 
Q 2688 2594 2478 2717 
Q 2269 2841 1825 2841 
Q 1466 2841 1156 2769 
Q 847 2697 581 2553 
L 581 3406 
Q 941 3494 1303 3539 
Q 1666 3584 2028 3584 
Q 2975 3584 3395 3211 
Q 3816 2838 3816 1997 
z
" transform="scale(0.015625)"/>
      <path id="DejaVuSans-Bold-74" d="M 1759 4494 
L 1759 3500 
L 2913 3500 
L 2913 2700 
L 1759 2700 
L 1759 1216 
Q 1759 972 1856 886 
Q 1953 800 2241 800 
L 2816 800 
L 2816 0 
L 1856 0 
Q 1194 0 917 276 
Q 641 553 641 1216 
L 641 2700 
L 84 2700 
L 84 3500 
L 641 3500 
L 641 4494 
L 1759 4494 
z
" transform="scale(0.015625)"/>
      <path id="DejaVuSans-Bold-2d" d="M 347 2297 
L 2309 2297 
L 2309 1388 
L 347 1388 
L 347 2297 
z
" transform="scale(0.015625)"/>
      <path id="DejaVuSans-Bold-6f" d="M 2203 2784 
Q 1831 2784 1636 2517 
Q 1441 2250 1441 1747 
Q 1441 1244 1636 976 
Q 1831 709 2203 709 
Q 2569 709 2762 976 
Q 2956 1244 2956 1747 
Q 2956 2250 2762 2517 
Q 2569 2784 2203 2784 
z
M 2203 3584 
Q 3106 3584 3614 3096 
Q 4122 2609 4122 1747 
Q 4122 884 3614 396 
Q 3106 -91 2203 -91 
Q 1297 -91 786 396 
Q 275 884 275 1747 
Q 275 2609 786 3096 
Q 1297 3584 2203 3584 
z
" transform="scale(0.015625)"/>
      <path id="DejaVuSans-Bold-6e" d="M 4056 2131 
L 4056 0 
L 2931 0 
L 2931 347 
L 2931 1631 
Q 2931 2084 2911 2256 
Q 2891 2428 2841 2509 
Q 2775 2619 2662 2680 
Q 2550 2741 2406 2741 
Q 2056 2741 1856 2470 
Q 1656 2200 1656 1722 
L 1656 0 
L 538 0 
L 538 3500 
L 1656 3500 
L 1656 2988 
Q 1909 3294 2193 3439 
Q 2478 3584 2822 3584 
Q 3428 3584 3742 3212 
Q 4056 2841 4056 2131 
z
" transform="scale(0.015625)"/>
      <path id="DejaVuSans-Bold-6c" d="M 538 4863 
L 1656 4863 
L 1656 0 
L 538 0 
L 538 4863 
z
" transform="scale(0.015625)"/>
      <path id="DejaVuSans-Bold-79" d="M 78 3500 
L 1197 3500 
L 2138 1125 
L 2938 3500 
L 4056 3500 
L 2584 -331 
Q 2363 -916 2067 -1148 
Q 1772 -1381 1288 -1381 
L 641 -1381 
L 641 -647 
L 991 -647 
Q 1275 -647 1404 -556 
Q 1534 -466 1606 -231 
L 1638 -134 
L 78 3500 
z
" transform="scale(0.015625)"/>
      <path id="DejaVuSans-Bold-20" transform="scale(0.015625)"/>
      <path id="DejaVuSans-Bold-67" d="M 2919 594 
Q 2688 288 2409 144 
Q 2131 0 1766 0 
Q 1125 0 706 504 
Q 288 1009 288 1791 
Q 288 2575 706 3076 
Q 1125 3578 1766 3578 
Q 2131 3578 2409 3434 
Q 2688 3291 2919 2981 
L 2919 3500 
L 4044 3500 
L 4044 353 
Q 4044 -491 3511 -936 
Q 2978 -1381 1966 -1381 
Q 1638 -1381 1331 -1331 
Q 1025 -1281 716 -1178 
L 716 -306 
Q 1009 -475 1290 -558 
Q 1572 -641 1856 -641 
Q 2406 -641 2662 -400 
Q 2919 -159 2919 353 
L 2919 594 
z
M 2181 2772 
Q 1834 2772 1640 2515 
Q 1447 2259 1447 1791 
Q 1447 1309 1634 1061 
Q 1822 813 2181 813 
Q 2531 813 2725 1069 
Q 2919 1325 2919 1791 
Q 2919 2259 2725 2515 
Q 2531 2772 2181 2772 
z
" transform="scale(0.015625)"/>
      <path id="DejaVuSans-Bold-72" d="M 3138 2547 
Q 2991 2616 2845 2648 
Q 2700 2681 2553 2681 
Q 2122 2681 1889 2404 
Q 1656 2128 1656 1613 
L 1656 0 
L 538 0 
L 538 3500 
L 1656 3500 
L 1656 2925 
Q 1872 3269 2151 3426 
Q 2431 3584 2822 3584 
Q 2878 3584 2943 3579 
Q 3009 3575 3134 3559 
L 3138 2547 
z
" transform="scale(0.015625)"/>
      <path id="DejaVuSans-Bold-70" d="M 1656 506 
L 1656 -1331 
L 538 -1331 
L 538 3500 
L 1656 3500 
L 1656 2988 
Q 1888 3294 2169 3439 
Q 2450 3584 2816 3584 
Q 3463 3584 3878 3070 
Q 4294 2556 4294 1747 
Q 4294 938 3878 423 
Q 3463 -91 2816 -91 
Q 2450 -91 2169 54 
Q 1888 200 1656 506 
z
M 2400 2772 
Q 2041 2772 1848 2508 
Q 1656 2244 1656 1747 
Q 1656 1250 1848 986 
Q 2041 722 2400 722 
Q 2759 722 2948 984 
Q 3138 1247 3138 1747 
Q 3138 2247 2948 2509 
Q 2759 2772 2400 2772 
z
" transform="scale(0.015625)"/>
      <path id="DejaVuSans-Bold-68" d="M 4056 2131 
L 4056 0 
L 2931 0 
L 2931 347 
L 2931 1625 
Q 2931 2084 2911 2256 
Q 2891 2428 2841 2509 
Q 2775 2619 2662 2680 
Q 2550 2741 2406 2741 
Q 2056 2741 1856 2470 
Q 1656 2200 1656 1722 
L 1656 0 
L 538 0 
L 538 4863 
L 1656 4863 
L 1656 2988 
Q 1909 3294 2193 3439 
Q 2478 3584 2822 3584 
Q 3428 3584 3742 3212 
Q 4056 2841 4056 2131 
z
" transform="scale(0.015625)"/>
     </defs>
     <use xlink:href="#DejaVuSans-Bold-44"/>
     <use xlink:href="#DejaVuSans-Bold-61" transform="translate(83.007812 0)"/>
     <use xlink:href="#DejaVuSans-Bold-74" transform="translate(150.488281 0)"/>
     <use xlink:href="#DejaVuSans-Bold-61" transform="translate(198.291016 0)"/>
     <use xlink:href="#DejaVuSans-Bold-2d" transform="translate(265.771484 0)"/>
     <use xlink:href="#DejaVuSans-Bold-6f" transform="translate(307.275391 0)"/>
     <use xlink:href="#DejaVuSans-Bold-6e" transform="translate(375.976562 0)"/>
     <use xlink:href="#DejaVuSans-Bold-6c" transform="translate(447.167969 0)"/>
     <use xlink:href="#DejaVuSans-Bold-79" transform="translate(481.445312 0)"/>
     <use xlink:href="#DejaVuSans-Bold-20" transform="translate(546.630859 0)"/>
     <use xlink:href="#DejaVuSans-Bold-67" transform="translate(581.445312 0)"/>
     <use xlink:href="#DejaVuSans-Bold-72" transform="translate(653.027344 0)"/>
     <use xlink:href="#DejaVuSans-Bold-61" transform="translate(702.34375 0)"/>
     <use xlink:href="#DejaVuSans-Bold-70" transform="translate(769.824219 0)"/>
     <use xlink:href="#DejaVuSans-Bold-68" transform="translate(841.40625 0)"/>
    </g>
   </g>
   <g id="text_2">
    <g id="patch_11">
     <path d="M 167.178 124.661908 
L 323.678 124.661908 
Q 328.053 124.661908 328.053 120.286908 
L 328.053 108.189252 
Q 328.053 103.814252 323.678 103.814252 
L 167.178 103.814252 
Q 162.803 103.814252 162.803 108.189252 
L 162.803 120.286908 
Q 162.803 124.661908 167.178 124.661908 
z
" style="fill: #fff5f3"/>
    </g>
    <!-- Implausible directions -->
    <g style="fill: #c75146" transform="translate(167.178 117.687299) scale(0.125 -0.125)">
     <defs>
      <path id="DejaVuSans-Bold-49" d="M 588 4666 
L 1791 4666 
L 1791 0 
L 588 0 
L 588 4666 
z
" transform="scale(0.015625)"/>
      <path id="DejaVuSans-Bold-6d" d="M 3781 2919 
Q 3994 3244 4286 3414 
Q 4578 3584 4928 3584 
Q 5531 3584 5847 3212 
Q 6163 2841 6163 2131 
L 6163 0 
L 5038 0 
L 5038 1825 
Q 5041 1866 5042 1909 
Q 5044 1953 5044 2034 
Q 5044 2406 4934 2573 
Q 4825 2741 4581 2741 
Q 4263 2741 4089 2478 
Q 3916 2216 3909 1719 
L 3909 0 
L 2784 0 
L 2784 1825 
Q 2784 2406 2684 2573 
Q 2584 2741 2328 2741 
Q 2006 2741 1831 2477 
Q 1656 2213 1656 1722 
L 1656 0 
L 531 0 
L 531 3500 
L 1656 3500 
L 1656 2988 
Q 1863 3284 2130 3434 
Q 2397 3584 2719 3584 
Q 3081 3584 3359 3409 
Q 3638 3234 3781 2919 
z
" transform="scale(0.015625)"/>
      <path id="DejaVuSans-Bold-75" d="M 500 1363 
L 500 3500 
L 1625 3500 
L 1625 3150 
Q 1625 2866 1622 2436 
Q 1619 2006 1619 1863 
Q 1619 1441 1641 1255 
Q 1663 1069 1716 984 
Q 1784 875 1895 815 
Q 2006 756 2150 756 
Q 2500 756 2700 1025 
Q 2900 1294 2900 1772 
L 2900 3500 
L 4019 3500 
L 4019 0 
L 2900 0 
L 2900 506 
Q 2647 200 2364 54 
Q 2081 -91 1741 -91 
Q 1134 -91 817 281 
Q 500 653 500 1363 
z
" transform="scale(0.015625)"/>
      <path id="DejaVuSans-Bold-73" d="M 3272 3391 
L 3272 2541 
Q 2913 2691 2578 2766 
Q 2244 2841 1947 2841 
Q 1628 2841 1473 2761 
Q 1319 2681 1319 2516 
Q 1319 2381 1436 2309 
Q 1553 2238 1856 2203 
L 2053 2175 
Q 2913 2066 3209 1816 
Q 3506 1566 3506 1031 
Q 3506 472 3093 190 
Q 2681 -91 1863 -91 
Q 1516 -91 1145 -36 
Q 775 19 384 128 
L 384 978 
Q 719 816 1070 734 
Q 1422 653 1784 653 
Q 2113 653 2278 743 
Q 2444 834 2444 1013 
Q 2444 1163 2330 1236 
Q 2216 1309 1875 1350 
L 1678 1375 
Q 931 1469 631 1722 
Q 331 1975 331 2491 
Q 331 3047 712 3315 
Q 1094 3584 1881 3584 
Q 2191 3584 2531 3537 
Q 2872 3491 3272 3391 
z
" transform="scale(0.015625)"/>
      <path id="DejaVuSans-Bold-69" d="M 538 3500 
L 1656 3500 
L 1656 0 
L 538 0 
L 538 3500 
z
M 538 4863 
L 1656 4863 
L 1656 3950 
L 538 3950 
L 538 4863 
z
" transform="scale(0.015625)"/>
      <path id="DejaVuSans-Bold-62" d="M 2400 722 
Q 2759 722 2948 984 
Q 3138 1247 3138 1747 
Q 3138 2247 2948 2509 
Q 2759 2772 2400 2772 
Q 2041 2772 1848 2508 
Q 1656 2244 1656 1747 
Q 1656 1250 1848 986 
Q 2041 722 2400 722 
z
M 1656 2988 
Q 1888 3294 2169 3439 
Q 2450 3584 2816 3584 
Q 3463 3584 3878 3070 
Q 4294 2556 4294 1747 
Q 4294 938 3878 423 
Q 3463 -91 2816 -91 
Q 2450 -91 2169 54 
Q 1888 200 1656 506 
L 1656 0 
L 538 0 
L 538 4863 
L 1656 4863 
L 1656 2988 
z
" transform="scale(0.015625)"/>
      <path id="DejaVuSans-Bold-65" d="M 4031 1759 
L 4031 1441 
L 1416 1441 
Q 1456 1047 1700 850 
Q 1944 653 2381 653 
Q 2734 653 3104 758 
Q 3475 863 3866 1075 
L 3866 213 
Q 3469 63 3072 -14 
Q 2675 -91 2278 -91 
Q 1328 -91 801 392 
Q 275 875 275 1747 
Q 275 2603 792 3093 
Q 1309 3584 2216 3584 
Q 3041 3584 3536 3087 
Q 4031 2591 4031 1759 
z
M 2881 2131 
Q 2881 2450 2695 2645 
Q 2509 2841 2209 2841 
Q 1884 2841 1681 2658 
Q 1478 2475 1428 2131 
L 2881 2131 
z
" transform="scale(0.015625)"/>
      <path id="DejaVuSans-Bold-64" d="M 2919 2988 
L 2919 4863 
L 4044 4863 
L 4044 0 
L 2919 0 
L 2919 506 
Q 2688 197 2409 53 
Q 2131 -91 1766 -91 
Q 1119 -91 703 423 
Q 288 938 288 1747 
Q 288 2556 703 3070 
Q 1119 3584 1766 3584 
Q 2128 3584 2408 3439 
Q 2688 3294 2919 2988 
z
M 2181 722 
Q 2541 722 2730 984 
Q 2919 1247 2919 1747 
Q 2919 2247 2730 2509 
Q 2541 2772 2181 2772 
Q 1825 2772 1636 2509 
Q 1447 2247 1447 1747 
Q 1447 1247 1636 984 
Q 1825 722 2181 722 
z
" transform="scale(0.015625)"/>
      <path id="DejaVuSans-Bold-63" d="M 3366 3391 
L 3366 2478 
Q 3138 2634 2908 2709 
Q 2678 2784 2431 2784 
Q 1963 2784 1702 2511 
Q 1441 2238 1441 1747 
Q 1441 1256 1702 982 
Q 1963 709 2431 709 
Q 2694 709 2930 787 
Q 3166 866 3366 1019 
L 3366 103 
Q 3103 6 2833 -42 
Q 2563 -91 2291 -91 
Q 1344 -91 809 395 
Q 275 881 275 1747 
Q 275 2613 809 3098 
Q 1344 3584 2291 3584 
Q 2566 3584 2833 3536 
Q 3100 3488 3366 3391 
z
" transform="scale(0.015625)"/>
     </defs>
     <use xlink:href="#DejaVuSans-Bold-49"/>
     <use xlink:href="#DejaVuSans-Bold-6d" transform="translate(37.207031 0)"/>
     <use xlink:href="#DejaVuSans-Bold-70" transform="translate(141.40625 0)"/>
     <use xlink:href="#DejaVuSans-Bold-6c" transform="translate(212.988281 0)"/>
     <use xlink:href="#DejaVuSans-Bold-61" transform="translate(247.265625 0)"/>
     <use xlink:href="#DejaVuSans-Bold-75" transform="translate(314.746094 0)"/>
     <use xlink:href="#DejaVuSans-Bold-73" transform="translate(385.9375 0)"/>
     <use xlink:href="#DejaVuSans-Bold-69" transform="translate(445.458984 0)"/>
     <use xlink:href="#DejaVuSans-Bold-62" transform="translate(479.736328 0)"/>
     <use xlink:href="#DejaVuSans-Bold-6c" transform="translate(551.318359 0)"/>
     <use xlink:href="#DejaVuSans-Bold-65" transform="translate(585.595703 0)"/>
     <use xlink:href="#DejaVuSans-Bold-20" transform="translate(653.417969 0)"/>
     <use xlink:href="#DejaVuSans-Bold-64" transform="translate(688.232422 0)"/>
     <use xlink:href="#DejaVuSans-Bold-69" transform="translate(759.814453 0)"/>
     <use xlink:href="#DejaVuSans-Bold-72" transform="translate(794.091797 0)"/>
     <use xlink:href="#DejaVuSans-Bold-65" transform="translate(843.408203 0)"/>
     <use xlink:href="#DejaVuSans-Bold-63" transform="translate(911.230469 0)"/>
     <use xlink:href="#DejaVuSans-Bold-74" transform="translate(970.507812 0)"/>
     <use xlink:href="#DejaVuSans-Bold-69" transform="translate(1018.310547 0)"/>
     <use xlink:href="#DejaVuSans-Bold-6f" transform="translate(1052.587891 0)"/>
     <use xlink:href="#DejaVuSans-Bold-6e" transform="translate(1121.289062 0)"/>
     <use xlink:href="#DejaVuSans-Bold-73" transform="translate(1192.480469 0)"/>
    </g>
   </g>
   <g id="text_3">
    <!-- Overall ESG Score -->
    <g style="fill: #111827" transform="translate(82.742901 182.052222) scale(0.118 -0.118)">
     <defs>
      <path id="DejaVuSans-4f" d="M 2522 4238 
Q 1834 4238 1429 3725 
Q 1025 3213 1025 2328 
Q 1025 1447 1429 934 
Q 1834 422 2522 422 
Q 3209 422 3611 934 
Q 4013 1447 4013 2328 
Q 4013 3213 3611 3725 
Q 3209 4238 2522 4238 
z
M 2522 4750 
Q 3503 4750 4090 4092 
Q 4678 3434 4678 2328 
Q 4678 1225 4090 567 
Q 3503 -91 2522 -91 
Q 1538 -91 948 565 
Q 359 1222 359 2328 
Q 359 3434 948 4092 
Q 1538 4750 2522 4750 
z
" transform="scale(0.015625)"/>
      <path id="DejaVuSans-76" d="M 191 3500 
L 800 3500 
L 1894 563 
L 2988 3500 
L 3597 3500 
L 2284 0 
L 1503 0 
L 191 3500 
z
" transform="scale(0.015625)"/>
      <path id="DejaVuSans-65" d="M 3597 1894 
L 3597 1613 
L 953 1613 
Q 991 1019 1311 708 
Q 1631 397 2203 397 
Q 2534 397 2845 478 
Q 3156 559 3463 722 
L 3463 178 
Q 3153 47 2828 -22 
Q 2503 -91 2169 -91 
Q 1331 -91 842 396 
Q 353 884 353 1716 
Q 353 2575 817 3079 
Q 1281 3584 2069 3584 
Q 2775 3584 3186 3129 
Q 3597 2675 3597 1894 
z
M 3022 2063 
Q 3016 2534 2758 2815 
Q 2500 3097 2075 3097 
Q 1594 3097 1305 2825 
Q 1016 2553 972 2059 
L 3022 2063 
z
" transform="scale(0.015625)"/>
      <path id="DejaVuSans-72" d="M 2631 2963 
Q 2534 3019 2420 3045 
Q 2306 3072 2169 3072 
Q 1681 3072 1420 2755 
Q 1159 2438 1159 1844 
L 1159 0 
L 581 0 
L 581 3500 
L 1159 3500 
L 1159 2956 
Q 1341 3275 1631 3429 
Q 1922 3584 2338 3584 
Q 2397 3584 2469 3576 
Q 2541 3569 2628 3553 
L 2631 2963 
z
" transform="scale(0.015625)"/>
      <path id="DejaVuSans-61" d="M 2194 1759 
Q 1497 1759 1228 1600 
Q 959 1441 959 1056 
Q 959 750 1161 570 
Q 1363 391 1709 391 
Q 2188 391 2477 730 
Q 2766 1069 2766 1631 
L 2766 1759 
L 2194 1759 
z
M 3341 1997 
L 3341 0 
L 2766 0 
L 2766 531 
Q 2569 213 2275 61 
Q 1981 -91 1556 -91 
Q 1019 -91 701 211 
Q 384 513 384 1019 
Q 384 1609 779 1909 
Q 1175 2209 1959 2209 
L 2766 2209 
L 2766 2266 
Q 2766 2663 2505 2880 
Q 2244 3097 1772 3097 
Q 1472 3097 1187 3025 
Q 903 2953 641 2809 
L 641 3341 
Q 956 3463 1253 3523 
Q 1550 3584 1831 3584 
Q 2591 3584 2966 3190 
Q 3341 2797 3341 1997 
z
" transform="scale(0.015625)"/>
      <path id="DejaVuSans-6c" d="M 603 4863 
L 1178 4863 
L 1178 0 
L 603 0 
L 603 4863 
z
" transform="scale(0.015625)"/>
      <path id="DejaVuSans-20" transform="scale(0.015625)"/>
      <path id="DejaVuSans-45" d="M 628 4666 
L 3578 4666 
L 3578 4134 
L 1259 4134 
L 1259 2753 
L 3481 2753 
L 3481 2222 
L 1259 2222 
L 1259 531 
L 3634 531 
L 3634 0 
L 628 0 
L 628 4666 
z
" transform="scale(0.015625)"/>
      <path id="DejaVuSans-53" d="M 3425 4513 
L 3425 3897 
Q 3066 4069 2747 4153 
Q 2428 4238 2131 4238 
Q 1616 4238 1336 4038 
Q 1056 3838 1056 3469 
Q 1056 3159 1242 3001 
Q 1428 2844 1947 2747 
L 2328 2669 
Q 3034 2534 3370 2195 
Q 3706 1856 3706 1288 
Q 3706 609 3251 259 
Q 2797 -91 1919 -91 
Q 1588 -91 1214 -16 
Q 841 59 441 206 
L 441 856 
Q 825 641 1194 531 
Q 1563 422 1919 422 
Q 2459 422 2753 634 
Q 3047 847 3047 1241 
Q 3047 1584 2836 1778 
Q 2625 1972 2144 2069 
L 1759 2144 
Q 1053 2284 737 2584 
Q 422 2884 422 3419 
Q 422 4038 858 4394 
Q 1294 4750 2059 4750 
Q 2388 4750 2728 4690 
Q 3069 4631 3425 4513 
z
" transform="scale(0.015625)"/>
      <path id="DejaVuSans-47" d="M 3809 666 
L 3809 1919 
L 2778 1919 
L 2778 2438 
L 4434 2438 
L 4434 434 
Q 4069 175 3628 42 
Q 3188 -91 2688 -91 
Q 1594 -91 976 548 
Q 359 1188 359 2328 
Q 359 3472 976 4111 
Q 1594 4750 2688 4750 
Q 3144 4750 3555 4637 
Q 3966 4525 4313 4306 
L 4313 3634 
Q 3963 3931 3569 4081 
Q 3175 4231 2741 4231 
Q 1884 4231 1454 3753 
Q 1025 3275 1025 2328 
Q 1025 1384 1454 906 
Q 1884 428 2741 428 
Q 3075 428 3337 486 
Q 3600 544 3809 666 
z
" transform="scale(0.015625)"/>
      <path id="DejaVuSans-63" d="M 3122 3366 
L 3122 2828 
Q 2878 2963 2633 3030 
Q 2388 3097 2138 3097 
Q 1578 3097 1268 2742 
Q 959 2388 959 1747 
Q 959 1106 1268 751 
Q 1578 397 2138 397 
Q 2388 397 2633 464 
Q 2878 531 3122 666 
L 3122 134 
Q 2881 22 2623 -34 
Q 2366 -91 2075 -91 
Q 1284 -91 818 406 
Q 353 903 353 1747 
Q 353 2603 823 3093 
Q 1294 3584 2113 3584 
Q 2378 3584 2631 3529 
Q 2884 3475 3122 3366 
z
" transform="scale(0.015625)"/>
      <path id="DejaVuSans-6f" d="M 1959 3097 
Q 1497 3097 1228 2736 
Q 959 2375 959 1747 
Q 959 1119 1226 758 
Q 1494 397 1959 397 
Q 2419 397 2687 759 
Q 2956 1122 2956 1747 
Q 2956 2369 2687 2733 
Q 2419 3097 1959 3097 
z
M 1959 3584 
Q 2709 3584 3137 3096 
Q 3566 2609 3566 1747 
Q 3566 888 3137 398 
Q 2709 -91 1959 -91 
Q 1206 -91 779 398 
Q 353 888 353 1747 
Q 353 2609 779 3096 
Q 1206 3584 1959 3584 
z
" transform="scale(0.015625)"/>
     </defs>
     <use xlink:href="#DejaVuSans-4f"/>
     <use xlink:href="#DejaVuSans-76" transform="translate(78.710938 0)"/>
     <use xlink:href="#DejaVuSans-65" transform="translate(137.890625 0)"/>
     <use xlink:href="#DejaVuSans-72" transform="translate(199.414062 0)"/>
     <use xlink:href="#DejaVuSans-61" transform="translate(240.527344 0)"/>
     <use xlink:href="#DejaVuSans-6c" transform="translate(301.806641 0)"/>
     <use xlink:href="#DejaVuSans-6c" transform="translate(329.589844 0)"/>
     <use xlink:href="#DejaVuSans-20" transform="translate(357.373047 0)"/>
     <use xlink:href="#DejaVuSans-45" transform="translate(389.160156 0)"/>
     <use xlink:href="#DejaVuSans-53" transform="translate(452.34375 0)"/>
     <use xlink:href="#DejaVuSans-47" transform="translate(515.820312 0)"/>
     <use xlink:href="#DejaVuSans-20" transform="translate(593.310547 0)"/>
     <use xlink:href="#DejaVuSans-53" transform="translate(625.097656 0)"/>
     <use xlink:href="#DejaVuSans-63" transform="translate(688.574219 0)"/>
     <use xlink:href="#DejaVuSans-6f" transform="translate(743.554688 0)"/>
     <use xlink:href="#DejaVuSans-72" transform="translate(804.736328 0)"/>
     <use xlink:href="#DejaVuSans-65" transform="translate(843.599609 0)"/>
    </g>
   </g>
   <g id="text_4">
    <!-- Emissions -->
    <g style="fill: #111827" transform="translate(325.38588 182.052222) scale(0.118 -0.118)">
     <defs>
      <path id="DejaVuSans-6d" d="M 3328 2828 
Q 3544 3216 3844 3400 
Q 4144 3584 4550 3584 
Q 5097 3584 5394 3201 
Q 5691 2819 5691 2113 
L 5691 0 
L 5113 0 
L 5113 2094 
Q 5113 2597 4934 2840 
Q 4756 3084 4391 3084 
Q 3944 3084 3684 2787 
Q 3425 2491 3425 1978 
L 3425 0 
L 2847 0 
L 2847 2094 
Q 2847 2600 2669 2842 
Q 2491 3084 2119 3084 
Q 1678 3084 1418 2786 
Q 1159 2488 1159 1978 
L 1159 0 
L 581 0 
L 581 3500 
L 1159 3500 
L 1159 2956 
Q 1356 3278 1631 3431 
Q 1906 3584 2284 3584 
Q 2666 3584 2933 3390 
Q 3200 3197 3328 2828 
z
" transform="scale(0.015625)"/>
      <path id="DejaVuSans-69" d="M 603 3500 
L 1178 3500 
L 1178 0 
L 603 0 
L 603 3500 
z
M 603 4863 
L 1178 4863 
L 1178 4134 
L 603 4134 
L 603 4863 
z
" transform="scale(0.015625)"/>
      <path id="DejaVuSans-73" d="M 2834 3397 
L 2834 2853 
Q 2591 2978 2328 3040 
Q 2066 3103 1784 3103 
Q 1356 3103 1142 2972 
Q 928 2841 928 2578 
Q 928 2378 1081 2264 
Q 1234 2150 1697 2047 
L 1894 2003 
Q 2506 1872 2764 1633 
Q 3022 1394 3022 966 
Q 3022 478 2636 193 
Q 2250 -91 1575 -91 
Q 1294 -91 989 -36 
Q 684 19 347 128 
L 347 722 
Q 666 556 975 473 
Q 1284 391 1588 391 
Q 1994 391 2212 530 
Q 2431 669 2431 922 
Q 2431 1156 2273 1281 
Q 2116 1406 1581 1522 
L 1381 1569 
Q 847 1681 609 1914 
Q 372 2147 372 2553 
Q 372 3047 722 3315 
Q 1072 3584 1716 3584 
Q 2034 3584 2315 3537 
Q 2597 3491 2834 3397 
z
" transform="scale(0.015625)"/>
      <path id="DejaVuSans-6e" d="M 3513 2113 
L 3513 0 
L 2938 0 
L 2938 2094 
Q 2938 2591 2744 2837 
Q 2550 3084 2163 3084 
Q 1697 3084 1428 2787 
Q 1159 2491 1159 1978 
L 1159 0 
L 581 0 
L 581 3500 
L 1159 3500 
L 1159 2956 
Q 1366 3272 1645 3428 
Q 1925 3584 2291 3584 
Q 2894 3584 3203 3211 
Q 3513 2838 3513 2113 
z
" transform="scale(0.015625)"/>
     </defs>
     <use xlink:href="#DejaVuSans-45"/>
     <use xlink:href="#DejaVuSans-6d" transform="translate(63.183594 0)"/>
     <use xlink:href="#DejaVuSans-69" transform="translate(160.595703 0)"/>
     <use xlink:href="#DejaVuSans-73" transform="translate(188.378906 0)"/>
     <use xlink:href="#DejaVuSans-73" transform="translate(240.478516 0)"/>
     <use xlink:href="#DejaVuSans-69" transform="translate(292.578125 0)"/>
     <use xlink:href="#DejaVuSans-6f" transform="translate(320.361328 0)"/>
     <use xlink:href="#DejaVuSans-6e" transform="translate(381.542969 0)"/>
     <use xlink:href="#DejaVuSans-73" transform="translate(444.921875 0)"/>
    </g>
   </g>
   <g id="text_5">
    <g id="patch_12">
     <path d="M 245.428 167.109472 
C 247.89298 167.109472 250.257333 166.130125 252.000337 164.387121 
C 253.743341 162.644117 254.722687 160.279764 254.722687 157.814784 
C 254.722687 155.349804 253.743341 152.985451 252.000337 151.242447 
C 250.257333 149.499443 247.89298 148.520096 245.428 148.520096 
C 242.96302 148.520096 240.598667 149.499443 238.855663 151.242447 
C 237.112659 152.985451 236.133312 155.349804 236.133312 157.814784 
C 236.133312 160.279764 237.112659 162.644117 238.855663 164.387121 
C 240.598667 166.130125 242.96302 167.109472 245.428 167.109472 
z
" style="fill: #c75146; stroke: #ffffff; stroke-linejoin: miter"/>
    </g>
    <!-- ! -->
    <g style="fill: #ffffff" transform="translate(242.235344 161.677909) scale(0.14 -0.14)">
     <defs>
      <path id="DejaVuSans-Bold-21" d="M 897 4666 
L 2022 4666 
L 2022 2875 
L 1863 1569 
L 1056 1569 
L 897 2875 
L 897 4666 
z
M 897 1113 
L 2022 1113 
L 2022 0 
L 897 0 
L 897 1113 
z
" transform="scale(0.015625)"/>
     </defs>
     <use xlink:href="#DejaVuSans-Bold-21"/>
    </g>
   </g>
   <g id="text_6">
    <!-- Reporting Quality -->
    <g style="fill: #111827" transform="translate(84.50737 258.714943) scale(0.118 -0.118)">
     <defs>
      <path id="DejaVuSans-52" d="M 2841 2188 
Q 3044 2119 3236 1894 
Q 3428 1669 3622 1275 
L 4263 0 
L 3584 0 
L 2988 1197 
Q 2756 1666 2539 1819 
Q 2322 1972 1947 1972 
L 1259 1972 
L 1259 0 
L 628 0 
L 628 4666 
L 2053 4666 
Q 2853 4666 3247 4331 
Q 3641 3997 3641 3322 
Q 3641 2881 3436 2590 
Q 3231 2300 2841 2188 
z
M 1259 4147 
L 1259 2491 
L 2053 2491 
Q 2509 2491 2742 2702 
Q 2975 2913 2975 3322 
Q 2975 3731 2742 3939 
Q 2509 4147 2053 4147 
L 1259 4147 
z
" transform="scale(0.015625)"/>
      <path id="DejaVuSans-70" d="M 1159 525 
L 1159 -1331 
L 581 -1331 
L 581 3500 
L 1159 3500 
L 1159 2969 
Q 1341 3281 1617 3432 
Q 1894 3584 2278 3584 
Q 2916 3584 3314 3078 
Q 3713 2572 3713 1747 
Q 3713 922 3314 415 
Q 2916 -91 2278 -91 
Q 1894 -91 1617 61 
Q 1341 213 1159 525 
z
M 3116 1747 
Q 3116 2381 2855 2742 
Q 2594 3103 2138 3103 
Q 1681 3103 1420 2742 
Q 1159 2381 1159 1747 
Q 1159 1113 1420 752 
Q 1681 391 2138 391 
Q 2594 391 2855 752 
Q 3116 1113 3116 1747 
z
" transform="scale(0.015625)"/>
      <path id="DejaVuSans-74" d="M 1172 4494 
L 1172 3500 
L 2356 3500 
L 2356 3053 
L 1172 3053 
L 1172 1153 
Q 1172 725 1289 603 
Q 1406 481 1766 481 
L 2356 481 
L 2356 0 
L 1766 0 
Q 1100 0 847 248 
Q 594 497 594 1153 
L 594 3053 
L 172 3053 
L 172 3500 
L 594 3500 
L 594 4494 
L 1172 4494 
z
" transform="scale(0.015625)"/>
      <path id="DejaVuSans-67" d="M 2906 1791 
Q 2906 2416 2648 2759 
Q 2391 3103 1925 3103 
Q 1463 3103 1205 2759 
Q 947 2416 947 1791 
Q 947 1169 1205 825 
Q 1463 481 1925 481 
Q 2391 481 2648 825 
Q 2906 1169 2906 1791 
z
M 3481 434 
Q 3481 -459 3084 -895 
Q 2688 -1331 1869 -1331 
Q 1566 -1331 1297 -1286 
Q 1028 -1241 775 -1147 
L 775 -588 
Q 1028 -725 1275 -790 
Q 1522 -856 1778 -856 
Q 2344 -856 2625 -561 
Q 2906 -266 2906 331 
L 2906 616 
Q 2728 306 2450 153 
Q 2172 0 1784 0 
Q 1141 0 747 490 
Q 353 981 353 1791 
Q 353 2603 747 3093 
Q 1141 3584 1784 3584 
Q 2172 3584 2450 3431 
Q 2728 3278 2906 2969 
L 2906 3500 
L 3481 3500 
L 3481 434 
z
" transform="scale(0.015625)"/>
      <path id="DejaVuSans-51" d="M 2522 4238 
Q 1834 4238 1429 3725 
Q 1025 3213 1025 2328 
Q 1025 1447 1429 934 
Q 1834 422 2522 422 
Q 3209 422 3611 934 
Q 4013 1447 4013 2328 
Q 4013 3213 3611 3725 
Q 3209 4238 2522 4238 
z
M 3406 84 
L 4238 -825 
L 3475 -825 
L 2784 -78 
Q 2681 -84 2626 -87 
Q 2572 -91 2522 -91 
Q 1538 -91 948 567 
Q 359 1225 359 2328 
Q 359 3434 948 4092 
Q 1538 4750 2522 4750 
Q 3503 4750 4090 4092 
Q 4678 3434 4678 2328 
Q 4678 1516 4351 937 
Q 4025 359 3406 84 
z
" transform="scale(0.015625)"/>
      <path id="DejaVuSans-75" d="M 544 1381 
L 544 3500 
L 1119 3500 
L 1119 1403 
Q 1119 906 1312 657 
Q 1506 409 1894 409 
Q 2359 409 2629 706 
Q 2900 1003 2900 1516 
L 2900 3500 
L 3475 3500 
L 3475 0 
L 2900 0 
L 2900 538 
Q 2691 219 2414 64 
Q 2138 -91 1772 -91 
Q 1169 -91 856 284 
Q 544 659 544 1381 
z
M 1991 3584 
L 1991 3584 
z
" transform="scale(0.015625)"/>
      <path id="DejaVuSans-79" d="M 2059 -325 
Q 1816 -950 1584 -1140 
Q 1353 -1331 966 -1331 
L 506 -1331 
L 506 -850 
L 844 -850 
Q 1081 -850 1212 -737 
Q 1344 -625 1503 -206 
L 1606 56 
L 191 3500 
L 800 3500 
L 1894 763 
L 2988 3500 
L 3597 3500 
L 2059 -325 
z
" transform="scale(0.015625)"/>
     </defs>
     <use xlink:href="#DejaVuSans-52"/>
     <use xlink:href="#DejaVuSans-65" transform="translate(64.982422 0)"/>
     <use xlink:href="#DejaVuSans-70" transform="translate(126.505859 0)"/>
     <use xlink:href="#DejaVuSans-6f" transform="translate(189.982422 0)"/>
     <use xlink:href="#DejaVuSans-72" transform="translate(251.164062 0)"/>
     <use xlink:href="#DejaVuSans-74" transform="translate(292.277344 0)"/>
     <use xlink:href="#DejaVuSans-69" transform="translate(331.486328 0)"/>
     <use xlink:href="#DejaVuSans-6e" transform="translate(359.269531 0)"/>
     <use xlink:href="#DejaVuSans-67" transform="translate(422.648438 0)"/>
     <use xlink:href="#DejaVuSans-20" transform="translate(486.125 0)"/>
     <use xlink:href="#DejaVuSans-51" transform="translate(517.912109 0)"/>
     <use xlink:href="#DejaVuSans-75" transform="translate(596.623047 0)"/>
     <use xlink:href="#DejaVuSans-61" transform="translate(660.001953 0)"/>
     <use xlink:href="#DejaVuSans-6c" transform="translate(721.28125 0)"/>
     <use xlink:href="#DejaVuSans-69" transform="translate(749.064453 0)"/>
     <use xlink:href="#DejaVuSans-74" transform="translate(776.847656 0)"/>
     <use xlink:href="#DejaVuSans-79" transform="translate(816.056641 0)"/>
    </g>
   </g>
   <g id="text_7">
    <!-- CO2 Intensity -->
    <g style="fill: #111827" transform="translate(314.635896 258.714943) scale(0.118 -0.118)">
     <defs>
      <path id="DejaVuSans-43" d="M 4122 4306 
L 4122 3641 
Q 3803 3938 3442 4084 
Q 3081 4231 2675 4231 
Q 1875 4231 1450 3742 
Q 1025 3253 1025 2328 
Q 1025 1406 1450 917 
Q 1875 428 2675 428 
Q 3081 428 3442 575 
Q 3803 722 4122 1019 
L 4122 359 
Q 3791 134 3420 21 
Q 3050 -91 2638 -91 
Q 1578 -91 968 557 
Q 359 1206 359 2328 
Q 359 3453 968 4101 
Q 1578 4750 2638 4750 
Q 3056 4750 3426 4639 
Q 3797 4528 4122 4306 
z
" transform="scale(0.015625)"/>
      <path id="DejaVuSans-32" d="M 1228 531 
L 3431 531 
L 3431 0 
L 469 0 
L 469 531 
Q 828 903 1448 1529 
Q 2069 2156 2228 2338 
Q 2531 2678 2651 2914 
Q 2772 3150 2772 3378 
Q 2772 3750 2511 3984 
Q 2250 4219 1831 4219 
Q 1534 4219 1204 4116 
Q 875 4013 500 3803 
L 500 4441 
Q 881 4594 1212 4672 
Q 1544 4750 1819 4750 
Q 2544 4750 2975 4387 
Q 3406 4025 3406 3419 
Q 3406 3131 3298 2873 
Q 3191 2616 2906 2266 
Q 2828 2175 2409 1742 
Q 1991 1309 1228 531 
z
" transform="scale(0.015625)"/>
      <path id="DejaVuSans-49" d="M 628 4666 
L 1259 4666 
L 1259 0 
L 628 0 
L 628 4666 
z
" transform="scale(0.015625)"/>
     </defs>
     <use xlink:href="#DejaVuSans-43"/>
     <use xlink:href="#DejaVuSans-4f" transform="translate(69.824219 0)"/>
     <use xlink:href="#DejaVuSans-32" transform="translate(148.535156 0)"/>
     <use xlink:href="#DejaVuSans-20" transform="translate(212.158203 0)"/>
     <use xlink:href="#DejaVuSans-49" transform="translate(243.945312 0)"/>
     <use xlink:href="#DejaVuSans-6e" transform="translate(273.4375 0)"/>
     <use xlink:href="#DejaVuSans-74" transform="translate(336.816406 0)"/>
     <use xlink:href="#DejaVuSans-65" transform="translate(376.025391 0)"/>
     <use xlink:href="#DejaVuSans-6e" transform="translate(437.548828 0)"/>
     <use xlink:href="#DejaVuSans-73" transform="translate(500.927734 0)"/>
     <use xlink:href="#DejaVuSans-69" transform="translate(553.027344 0)"/>
     <use xlink:href="#DejaVuSans-74" transform="translate(580.810547 0)"/>
     <use xlink:href="#DejaVuSans-79" transform="translate(620.019531 0)"/>
    </g>
   </g>
   <g id="text_8">
    <g id="patch_13">
     <path d="M 245.428 243.772191 
C 247.89298 243.772191 250.257333 242.792845 252.000337 241.049841 
C 253.743341 239.306837 254.722687 236.942484 254.722687 234.477504 
C 254.722687 232.012524 253.743341 229.648171 252.000337 227.905167 
C 250.257333 226.162163 247.89298 225.182816 245.428 225.182816 
C 242.96302 225.182816 240.598667 226.162163 238.855663 227.905167 
C 237.112659 229.648171 236.133312 232.012524 236.133312 234.477504 
C 236.133312 236.942484 237.112659 239.306837 238.855663 241.049841 
C 240.598667 242.792845 242.96302 243.772191 245.428 243.772191 
z
" style="fill: #c75146; stroke: #ffffff; stroke-linejoin: miter"/>
    </g>
    <!-- ! -->
    <g style="fill: #ffffff" transform="translate(242.235344 238.340629) scale(0.14 -0.14)">
     <use xlink:href="#DejaVuSans-Bold-21"/>
    </g>
   </g>
   <g id="text_9">
    <!-- Debt-to-Equity Ratio -->
    <g style="fill: #111827" transform="translate(75.947761 335.377663) scale(0.118 -0.118)">
     <defs>
      <path id="DejaVuSans-44" d="M 1259 4147 
L 1259 519 
L 2022 519 
Q 2988 519 3436 956 
Q 3884 1394 3884 2338 
Q 3884 3275 3436 3711 
Q 2988 4147 2022 4147 
L 1259 4147 
z
M 628 4666 
L 1925 4666 
Q 3281 4666 3915 4102 
Q 4550 3538 4550 2338 
Q 4550 1131 3912 565 
Q 3275 0 1925 0 
L 628 0 
L 628 4666 
z
" transform="scale(0.015625)"/>
      <path id="DejaVuSans-62" d="M 3116 1747 
Q 3116 2381 2855 2742 
Q 2594 3103 2138 3103 
Q 1681 3103 1420 2742 
Q 1159 2381 1159 1747 
Q 1159 1113 1420 752 
Q 1681 391 2138 391 
Q 2594 391 2855 752 
Q 3116 1113 3116 1747 
z
M 1159 2969 
Q 1341 3281 1617 3432 
Q 1894 3584 2278 3584 
Q 2916 3584 3314 3078 
Q 3713 2572 3713 1747 
Q 3713 922 3314 415 
Q 2916 -91 2278 -91 
Q 1894 -91 1617 61 
Q 1341 213 1159 525 
L 1159 0 
L 581 0 
L 581 4863 
L 1159 4863 
L 1159 2969 
z
" transform="scale(0.015625)"/>
      <path id="DejaVuSans-2d" d="M 313 2009 
L 1997 2009 
L 1997 1497 
L 313 1497 
L 313 2009 
z
" transform="scale(0.015625)"/>
      <path id="DejaVuSans-71" d="M 947 1747 
Q 947 1113 1208 752 
Q 1469 391 1925 391 
Q 2381 391 2643 752 
Q 2906 1113 2906 1747 
Q 2906 2381 2643 2742 
Q 2381 3103 1925 3103 
Q 1469 3103 1208 2742 
Q 947 2381 947 1747 
z
M 2906 525 
Q 2725 213 2448 61 
Q 2172 -91 1784 -91 
Q 1150 -91 751 415 
Q 353 922 353 1747 
Q 353 2572 751 3078 
Q 1150 3584 1784 3584 
Q 2172 3584 2448 3432 
Q 2725 3281 2906 2969 
L 2906 3500 
L 3481 3500 
L 3481 -1331 
L 2906 -1331 
L 2906 525 
z
" transform="scale(0.015625)"/>
     </defs>
     <use xlink:href="#DejaVuSans-44"/>
     <use xlink:href="#DejaVuSans-65" transform="translate(77.001953 0)"/>
     <use xlink:href="#DejaVuSans-62" transform="translate(138.525391 0)"/>
     <use xlink:href="#DejaVuSans-74" transform="translate(202.001953 0)"/>
     <use xlink:href="#DejaVuSans-2d" transform="translate(241.210938 0)"/>
     <use xlink:href="#DejaVuSans-74" transform="translate(277.294922 0)"/>
     <use xlink:href="#DejaVuSans-6f" transform="translate(316.503906 0)"/>
     <use xlink:href="#DejaVuSans-2d" transform="translate(379.560547 0)"/>
     <use xlink:href="#DejaVuSans-45" transform="translate(415.644531 0)"/>
     <use xlink:href="#DejaVuSans-71" transform="translate(478.828125 0)"/>
     <use xlink:href="#DejaVuSans-75" transform="translate(542.304688 0)"/>
     <use xlink:href="#DejaVuSans-69" transform="translate(605.683594 0)"/>
     <use xlink:href="#DejaVuSans-74" transform="translate(633.466797 0)"/>
     <use xlink:href="#DejaVuSans-79" transform="translate(672.675781 0)"/>
     <use xlink:href="#DejaVuSans-20" transform="translate(731.855469 0)"/>
     <use xlink:href="#DejaVuSans-52" transform="translate(763.642578 0)"/>
     <use xlink:href="#DejaVuSans-61" transform="translate(830.875 0)"/>
     <use xlink:href="#DejaVuSans-74" transform="translate(892.154297 0)"/>
     <use xlink:href="#DejaVuSans-69" transform="translate(931.363281 0)"/>
     <use xlink:href="#DejaVuSans-6f" transform="translate(959.146484 0)"/>
    </g>
   </g>
   <g id="text_10">
    <!-- Total Debt -->
    <g style="fill: #111827" transform="translate(324.823536 335.377663) scale(0.118 -0.118)">
     <defs>
      <path id="DejaVuSans-54" d="M -19 4666 
L 3928 4666 
L 3928 4134 
L 2272 4134 
L 2272 0 
L 1638 0 
L 1638 4134 
L -19 4134 
L -19 4666 
z
" transform="scale(0.015625)"/>
     </defs>
     <use xlink:href="#DejaVuSans-54"/>
     <use xlink:href="#DejaVuSans-6f" transform="translate(44.083984 0)"/>
     <use xlink:href="#DejaVuSans-74" transform="translate(105.265625 0)"/>
     <use xlink:href="#DejaVuSans-61" transform="translate(144.474609 0)"/>
     <use xlink:href="#DejaVuSans-6c" transform="translate(205.753906 0)"/>
     <use xlink:href="#DejaVuSans-20" transform="translate(233.537109 0)"/>
     <use xlink:href="#DejaVuSans-44" transform="translate(265.324219 0)"/>
     <use xlink:href="#DejaVuSans-65" transform="translate(342.326172 0)"/>
     <use xlink:href="#DejaVuSans-62" transform="translate(403.849609 0)"/>
     <use xlink:href="#DejaVuSans-74" transform="translate(467.326172 0)"/>
    </g>
   </g>
   <g id="text_11">
    <g id="patch_14">
     <path d="M 245.428 320.434911 
C 247.89298 320.434911 250.257333 319.455565 252.000337 317.712561 
C 253.743341 315.969557 254.722687 313.605204 254.722687 311.140224 
C 254.722687 308.675244 253.743341 306.310891 252.000337 304.567887 
C 250.257333 302.824883 247.89298 301.845537 245.428 301.845537 
C 242.96302 301.845537 240.598667 302.824883 238.855663 304.567887 
C 237.112659 306.310891 236.133312 308.675244 236.133312 311.140224 
C 236.133312 313.605204 237.112659 315.969557 238.855663 317.712561 
C 240.598667 319.455565 242.96302 320.434911 245.428 320.434911 
z
" style="fill: #c75146; stroke: #ffffff; stroke-linejoin: miter"/>
    </g>
    <!-- ! -->
    <g style="fill: #ffffff" transform="translate(242.235344 315.003349) scale(0.14 -0.14)">
     <use xlink:href="#DejaVuSans-Bold-21"/>
    </g>
   </g>
  </g>
  <g id="axes_2">
   <g id="patch_15">
    <path d="M 500.917848 208.250784 
L 632.864392 208.250784 
Q 642.982992 208.250784 642.982992 198.163584 
L 642.982992 159.428736 
Q 642.982992 149.341536 632.864392 149.341536 
L 500.917848 149.341536 
Q 490.799248 149.341536 490.799248 159.428736 
L 490.799248 198.163584 
Q 490.799248 208.250784 500.917848 208.250784 
z
" clip-path="url(#p6b7a392628)" style="fill: #ffffff; stroke: #d6dee8; stroke-width: 1.2; stroke-linejoin: miter"/>
   </g>
   <g id="patch_16">
    <path d="M 719.479608 208.250784 
L 851.426152 208.250784 
Q 861.544752 208.250784 861.544752 198.163584 
L 861.544752 159.428736 
Q 861.544752 149.341536 851.426152 149.341536 
L 719.479608 149.341536 
Q 709.361008 149.341536 709.361008 159.428736 
L 709.361008 198.163584 
Q 709.361008 208.250784 719.479608 208.250784 
z
" clip-path="url(#p6b7a392628)" style="fill: #ffffff; stroke: #d6dee8; stroke-width: 1.2; stroke-linejoin: miter"/>
   </g>
   <g id="patch_17">
    <path d="M 641.700578 178.79616 
Q 676.175016 178.79616 707.518958 178.79616 
" clip-path="url(#p6b7a392628)" style="fill: none; stroke: #2a9d8f; stroke-width: 2.8; stroke-linecap: round"/>
    <path d="M 700.318958 175.19616 
L 707.518958 178.79616 
L 700.318958 182.39616 
z
" clip-path="url(#p6b7a392628)" style="fill: #2a9d8f; stroke: #2a9d8f; stroke-width: 2.8; stroke-linecap: round"/>
   </g>
   <g id="patch_18">
    <path d="M 500.917848 284.913504 
L 632.864392 284.913504 
Q 642.982992 284.913504 642.982992 274.826304 
L 642.982992 236.091456 
Q 642.982992 226.004256 632.864392 226.004256 
L 500.917848 226.004256 
Q 490.799248 226.004256 490.799248 236.091456 
L 490.799248 274.826304 
Q 490.799248 284.913504 500.917848 284.913504 
z
" clip-path="url(#p6b7a392628)" style="fill: #ffffff; stroke: #d6dee8; stroke-width: 1.2; stroke-linejoin: miter"/>
   </g>
   <g id="patch_19">
    <path d="M 719.479608 284.913504 
L 851.426152 284.913504 
Q 861.544752 284.913504 861.544752 274.826304 
L 861.544752 236.091456 
Q 861.544752 226.004256 851.426152 226.004256 
L 719.479608 226.004256 
Q 709.361008 226.004256 709.361008 236.091456 
L 709.361008 274.826304 
Q 709.361008 284.913504 719.479608 284.913504 
z
" clip-path="url(#p6b7a392628)" style="fill: #ffffff; stroke: #d6dee8; stroke-width: 1.2; stroke-linejoin: miter"/>
   </g>
   <g id="patch_20">
    <path d="M 641.700578 255.45888 
Q 676.175016 255.45888 707.518958 255.45888 
" clip-path="url(#p6b7a392628)" style="fill: none; stroke: #2a9d8f; stroke-width: 2.8; stroke-linecap: round"/>
    <path d="M 700.318958 251.85888 
L 707.518958 255.45888 
L 700.318958 259.05888 
z
" clip-path="url(#p6b7a392628)" style="fill: #2a9d8f; stroke: #2a9d8f; stroke-width: 2.8; stroke-linecap: round"/>
   </g>
   <g id="patch_21">
    <path d="M 500.917848 361.576224 
L 632.864392 361.576224 
Q 642.982992 361.576224 642.982992 351.489024 
L 642.982992 312.754176 
Q 642.982992 302.666976 632.864392 302.666976 
L 500.917848 302.666976 
Q 490.799248 302.666976 490.799248 312.754176 
L 490.799248 351.489024 
Q 490.799248 361.576224 500.917848 361.576224 
z
" clip-path="url(#p6b7a392628)" style="fill: #ffffff; stroke: #d6dee8; stroke-width: 1.2; stroke-linejoin: miter"/>
   </g>
   <g id="patch_22">
    <path d="M 719.479608 361.576224 
L 851.426152 361.576224 
Q 861.544752 361.576224 861.544752 351.489024 
L 861.544752 312.754176 
Q 861.544752 302.666976 851.426152 302.666976 
L 719.479608 302.666976 
Q 709.361008 302.666976 709.361008 312.754176 
L 709.361008 351.489024 
Q 709.361008 361.576224 719.479608 361.576224 
z
" clip-path="url(#p6b7a392628)" style="fill: #ffffff; stroke: #d6dee8; stroke-width: 1.2; stroke-linejoin: miter"/>
   </g>
   <g id="patch_23">
    <path d="M 641.700578 332.1216 
Q 676.175016 332.1216 707.518958 332.1216 
" clip-path="url(#p6b7a392628)" style="fill: none; stroke: #2a9d8f; stroke-width: 2.8; stroke-linecap: round"/>
    <path d="M 700.318958 328.5216 
L 707.518958 332.1216 
L 700.318958 335.7216 
z
" clip-path="url(#p6b7a392628)" style="fill: #2a9d8f; stroke: #2a9d8f; stroke-width: 2.8; stroke-linecap: round"/>
   </g>
   <g id="text_12">
    <!-- Ontology-constrained graph -->
    <g style="fill: #111827" transform="translate(525.306062 83.092754) scale(0.19 -0.19)">
     <defs>
      <path id="DejaVuSans-Bold-4f" d="M 2719 3878 
Q 2169 3878 1866 3472 
Q 1563 3066 1563 2328 
Q 1563 1594 1866 1187 
Q 2169 781 2719 781 
Q 3272 781 3575 1187 
Q 3878 1594 3878 2328 
Q 3878 3066 3575 3472 
Q 3272 3878 2719 3878 
z
M 2719 4750 
Q 3844 4750 4481 4106 
Q 5119 3463 5119 2328 
Q 5119 1197 4481 553 
Q 3844 -91 2719 -91 
Q 1597 -91 958 553 
Q 319 1197 319 2328 
Q 319 3463 958 4106 
Q 1597 4750 2719 4750 
z
" transform="scale(0.015625)"/>
     </defs>
     <use xlink:href="#DejaVuSans-Bold-4f"/>
     <use xlink:href="#DejaVuSans-Bold-6e" transform="translate(85.009766 0)"/>
     <use xlink:href="#DejaVuSans-Bold-74" transform="translate(156.201172 0)"/>
     <use xlink:href="#DejaVuSans-Bold-6f" transform="translate(204.003906 0)"/>
     <use xlink:href="#DejaVuSans-Bold-6c" transform="translate(272.705078 0)"/>
     <use xlink:href="#DejaVuSans-Bold-6f" transform="translate(306.982422 0)"/>
     <use xlink:href="#DejaVuSans-Bold-67" transform="translate(375.683594 0)"/>
     <use xlink:href="#DejaVuSans-Bold-79" transform="translate(447.265625 0)"/>
     <use xlink:href="#DejaVuSans-Bold-2d" transform="translate(512.451172 0)"/>
     <use xlink:href="#DejaVuSans-Bold-63" transform="translate(553.955078 0)"/>
     <use xlink:href="#DejaVuSans-Bold-6f" transform="translate(613.232422 0)"/>
     <use xlink:href="#DejaVuSans-Bold-6e" transform="translate(681.933594 0)"/>
     <use xlink:href="#DejaVuSans-Bold-73" transform="translate(753.125 0)"/>
     <use xlink:href="#DejaVuSans-Bold-74" transform="translate(812.646484 0)"/>
     <use xlink:href="#DejaVuSans-Bold-72" transform="translate(860.449219 0)"/>
     <use xlink:href="#DejaVuSans-Bold-61" transform="translate(909.765625 0)"/>
     <use xlink:href="#DejaVuSans-Bold-69" transform="translate(977.246094 0)"/>
     <use xlink:href="#DejaVuSans-Bold-6e" transform="translate(1011.523438 0)"/>
     <use xlink:href="#DejaVuSans-Bold-65" transform="translate(1082.714844 0)"/>
     <use xlink:href="#DejaVuSans-Bold-64" transform="translate(1150.537109 0)"/>
     <use xlink:href="#DejaVuSans-Bold-20" transform="translate(1222.119141 0)"/>
     <use xlink:href="#DejaVuSans-Bold-67" transform="translate(1256.933594 0)"/>
     <use xlink:href="#DejaVuSans-Bold-72" transform="translate(1328.515625 0)"/>
     <use xlink:href="#DejaVuSans-Bold-61" transform="translate(1377.832031 0)"/>
     <use xlink:href="#DejaVuSans-Bold-70" transform="translate(1445.3125 0)"/>
     <use xlink:href="#DejaVuSans-Bold-68" transform="translate(1516.894531 0)"/>
    </g>
   </g>
   <g id="text_13">
    <g id="patch_24">
     <path d="M 592.311648 124.661908 
L 760.032352 124.661908 
Q 764.407352 124.661908 764.407352 120.286908 
L 764.407352 108.189252 
Q 764.407352 103.814252 760.032352 103.814252 
L 592.311648 103.814252 
Q 587.936648 103.814252 587.936648 108.189252 
L 587.936648 120.286908 
Q 587.936648 124.661908 592.311648 124.661908 
z
" style="fill: #f0faf7"/>
    </g>
    <!-- Domain-valid directions -->
    <g style="fill: #2a9d8f" transform="translate(592.311648 117.687299) scale(0.125 -0.125)">
     <defs>
      <path id="DejaVuSans-Bold-76" d="M 97 3500 
L 1216 3500 
L 2088 1081 
L 2956 3500 
L 4078 3500 
L 2700 0 
L 1472 0 
L 97 3500 
z
" transform="scale(0.015625)"/>
     </defs>
     <use xlink:href="#DejaVuSans-Bold-44"/>
     <use xlink:href="#DejaVuSans-Bold-6f" transform="translate(83.007812 0)"/>
     <use xlink:href="#DejaVuSans-Bold-6d" transform="translate(151.708984 0)"/>
     <use xlink:href="#DejaVuSans-Bold-61" transform="translate(255.908203 0)"/>
     <use xlink:href="#DejaVuSans-Bold-69" transform="translate(323.388672 0)"/>
     <use xlink:href="#DejaVuSans-Bold-6e" transform="translate(357.666016 0)"/>
     <use xlink:href="#DejaVuSans-Bold-2d" transform="translate(428.857422 0)"/>
     <use xlink:href="#DejaVuSans-Bold-76" transform="translate(470.361328 0)"/>
     <use xlink:href="#DejaVuSans-Bold-61" transform="translate(535.546875 0)"/>
     <use xlink:href="#DejaVuSans-Bold-6c" transform="translate(603.027344 0)"/>
     <use xlink:href="#DejaVuSans-Bold-69" transform="translate(637.304688 0)"/>
     <use xlink:href="#DejaVuSans-Bold-64" transform="translate(671.582031 0)"/>
     <use xlink:href="#DejaVuSans-Bold-20" transform="translate(743.164062 0)"/>
     <use xlink:href="#DejaVuSans-Bold-64" transform="translate(777.978516 0)"/>
     <use xlink:href="#DejaVuSans-Bold-69" transform="translate(849.560547 0)"/>
     <use xlink:href="#DejaVuSans-Bold-72" transform="translate(883.837891 0)"/>
     <use xlink:href="#DejaVuSans-Bold-65" transform="translate(933.154297 0)"/>
     <use xlink:href="#DejaVuSans-Bold-63" transform="translate(1000.976562 0)"/>
     <use xlink:href="#DejaVuSans-Bold-74" transform="translate(1060.253906 0)"/>
     <use xlink:href="#DejaVuSans-Bold-69" transform="translate(1108.056641 0)"/>
     <use xlink:href="#DejaVuSans-Bold-6f" transform="translate(1142.333984 0)"/>
     <use xlink:href="#DejaVuSans-Bold-6e" transform="translate(1211.035156 0)"/>
     <use xlink:href="#DejaVuSans-Bold-73" transform="translate(1282.226562 0)"/>
    </g>
   </g>
   <g id="text_14">
    <!-- Emissions -->
    <g style="fill: #111827" transform="translate(537.56812 182.052222) scale(0.118 -0.118)">
     <use xlink:href="#DejaVuSans-45"/>
     <use xlink:href="#DejaVuSans-6d" transform="translate(63.183594 0)"/>
     <use xlink:href="#DejaVuSans-69" transform="translate(160.595703 0)"/>
     <use xlink:href="#DejaVuSans-73" transform="translate(188.378906 0)"/>
     <use xlink:href="#DejaVuSans-73" transform="translate(240.478516 0)"/>
     <use xlink:href="#DejaVuSans-69" transform="translate(292.578125 0)"/>
     <use xlink:href="#DejaVuSans-6f" transform="translate(320.361328 0)"/>
     <use xlink:href="#DejaVuSans-6e" transform="translate(381.542969 0)"/>
     <use xlink:href="#DejaVuSans-73" transform="translate(444.921875 0)"/>
    </g>
   </g>
   <g id="text_15">
    <!-- Environmental Score -->
    <g style="fill: #111827" transform="translate(724.130677 182.052222) scale(0.118 -0.118)">
     <use xlink:href="#DejaVuSans-45"/>
     <use xlink:href="#DejaVuSans-6e" transform="translate(63.183594 0)"/>
     <use xlink:href="#DejaVuSans-76" transform="translate(126.5625 0)"/>
     <use xlink:href="#DejaVuSans-69" transform="translate(185.742188 0)"/>
     <use xlink:href="#DejaVuSans-72" transform="translate(213.525391 0)"/>
     <use xlink:href="#DejaVuSans-6f" transform="translate(252.388672 0)"/>
     <use xlink:href="#DejaVuSans-6e" transform="translate(313.570312 0)"/>
     <use xlink:href="#DejaVuSans-6d" transform="translate(376.949219 0)"/>
     <use xlink:href="#DejaVuSans-65" transform="translate(474.361328 0)"/>
     <use xlink:href="#DejaVuSans-6e" transform="translate(535.884766 0)"/>
     <use xlink:href="#DejaVuSans-74" transform="translate(599.263672 0)"/>
     <use xlink:href="#DejaVuSans-61" transform="translate(638.472656 0)"/>
     <use xlink:href="#DejaVuSans-6c" transform="translate(699.751953 0)"/>
     <use xlink:href="#DejaVuSans-20" transform="translate(727.535156 0)"/>
     <use xlink:href="#DejaVuSans-53" transform="translate(759.322266 0)"/>
     <use xlink:href="#DejaVuSans-63" transform="translate(822.798828 0)"/>
     <use xlink:href="#DejaVuSans-6f" transform="translate(877.779297 0)"/>
     <use xlink:href="#DejaVuSans-72" transform="translate(938.960938 0)"/>
     <use xlink:href="#DejaVuSans-65" transform="translate(977.824219 0)"/>
    </g>
   </g>
   <g id="text_16">
    <!-- CO2 Intensity -->
    <g style="fill: #111827" transform="translate(526.818136 258.714943) scale(0.118 -0.118)">
     <use xlink:href="#DejaVuSans-43"/>
     <use xlink:href="#DejaVuSans-4f" transform="translate(69.824219 0)"/>
     <use xlink:href="#DejaVuSans-32" transform="translate(148.535156 0)"/>
     <use xlink:href="#DejaVuSans-20" transform="translate(212.158203 0)"/>
     <use xlink:href="#DejaVuSans-49" transform="translate(243.945312 0)"/>
     <use xlink:href="#DejaVuSans-6e" transform="translate(273.4375 0)"/>
     <use xlink:href="#DejaVuSans-74" transform="translate(336.816406 0)"/>
     <use xlink:href="#DejaVuSans-65" transform="translate(376.025391 0)"/>
     <use xlink:href="#DejaVuSans-6e" transform="translate(437.548828 0)"/>
     <use xlink:href="#DejaVuSans-73" transform="translate(500.927734 0)"/>
     <use xlink:href="#DejaVuSans-69" transform="translate(553.027344 0)"/>
     <use xlink:href="#DejaVuSans-74" transform="translate(580.810547 0)"/>
     <use xlink:href="#DejaVuSans-79" transform="translate(620.019531 0)"/>
    </g>
   </g>
   <g id="text_17">
    <!-- Environmental Score -->
    <g style="fill: #111827" transform="translate(724.130677 258.714943) scale(0.118 -0.118)">
     <use xlink:href="#DejaVuSans-45"/>
     <use xlink:href="#DejaVuSans-6e" transform="translate(63.183594 0)"/>
     <use xlink:href="#DejaVuSans-76" transform="translate(126.5625 0)"/>
     <use xlink:href="#DejaVuSans-69" transform="translate(185.742188 0)"/>
     <use xlink:href="#DejaVuSans-72" transform="translate(213.525391 0)"/>
     <use xlink:href="#DejaVuSans-6f" transform="translate(252.388672 0)"/>
     <use xlink:href="#DejaVuSans-6e" transform="translate(313.570312 0)"/>
     <use xlink:href="#DejaVuSans-6d" transform="translate(376.949219 0)"/>
     <use xlink:href="#DejaVuSans-65" transform="translate(474.361328 0)"/>
     <use xlink:href="#DejaVuSans-6e" transform="translate(535.884766 0)"/>
     <use xlink:href="#DejaVuSans-74" transform="translate(599.263672 0)"/>
     <use xlink:href="#DejaVuSans-61" transform="translate(638.472656 0)"/>
     <use xlink:href="#DejaVuSans-6c" transform="translate(699.751953 0)"/>
     <use xlink:href="#DejaVuSans-20" transform="translate(727.535156 0)"/>
     <use xlink:href="#DejaVuSans-53" transform="translate(759.322266 0)"/>
     <use xlink:href="#DejaVuSans-63" transform="translate(822.798828 0)"/>
     <use xlink:href="#DejaVuSans-6f" transform="translate(877.779297 0)"/>
     <use xlink:href="#DejaVuSans-72" transform="translate(938.960938 0)"/>
     <use xlink:href="#DejaVuSans-65" transform="translate(977.824219 0)"/>
    </g>
   </g>
   <g id="text_18">
    <!-- Total Debt -->
    <g style="fill: #111827" transform="translate(537.005776 335.377663) scale(0.118 -0.118)">
     <use xlink:href="#DejaVuSans-54"/>
     <use xlink:href="#DejaVuSans-6f" transform="translate(44.083984 0)"/>
     <use xlink:href="#DejaVuSans-74" transform="translate(105.265625 0)"/>
     <use xlink:href="#DejaVuSans-61" transform="translate(144.474609 0)"/>
     <use xlink:href="#DejaVuSans-6c" transform="translate(205.753906 0)"/>
     <use xlink:href="#DejaVuSans-20" transform="translate(233.537109 0)"/>
     <use xlink:href="#DejaVuSans-44" transform="translate(265.324219 0)"/>
     <use xlink:href="#DejaVuSans-65" transform="translate(342.326172 0)"/>
     <use xlink:href="#DejaVuSans-62" transform="translate(403.849609 0)"/>
     <use xlink:href="#DejaVuSans-74" transform="translate(467.326172 0)"/>
    </g>
   </g>
   <g id="text_19">
    <!-- Debt-to-Equity Ratio -->
    <g style="fill: #111827" transform="translate(725.253521 335.377663) scale(0.118 -0.118)">
     <use xlink:href="#DejaVuSans-44"/>
     <use xlink:href="#DejaVuSans-65" transform="translate(77.001953 0)"/>
     <use xlink:href="#DejaVuSans-62" transform="translate(138.525391 0)"/>
     <use xlink:href="#DejaVuSans-74" transform="translate(202.001953 0)"/>
     <use xlink:href="#DejaVuSans-2d" transform="translate(241.210938 0)"/>
     <use xlink:href="#DejaVuSans-74" transform="translate(277.294922 0)"/>
     <use xlink:href="#DejaVuSans-6f" transform="translate(316.503906 0)"/>
     <use xlink:href="#DejaVuSans-2d" transform="translate(379.560547 0)"/>
     <use xlink:href="#DejaVuSans-45" transform="translate(415.644531 0)"/>
     <use xlink:href="#DejaVuSans-71" transform="translate(478.828125 0)"/>
     <use xlink:href="#DejaVuSans-75" transform="translate(542.304688 0)"/>
     <use xlink:href="#DejaVuSans-69" transform="translate(605.683594 0)"/>
     <use xlink:href="#DejaVuSans-74" transform="translate(633.466797 0)"/>
     <use xlink:href="#DejaVuSans-79" transform="translate(672.675781 0)"/>
     <use xlink:href="#DejaVuSans-20" transform="translate(731.855469 0)"/>
     <use xlink:href="#DejaVuSans-52" transform="translate(763.642578 0)"/>
     <use xlink:href="#DejaVuSans-61" transform="translate(830.875 0)"/>
     <use xlink:href="#DejaVuSans-74" transform="translate(892.154297 0)"/>
     <use xlink:href="#DejaVuSans-69" transform="translate(931.363281 0)"/>
     <use xlink:href="#DejaVuSans-6f" transform="translate(959.146484 0)"/>
    </g>
   </g>
  </g>
  <g id="text_20">
   <!-- Problem and Research Gap -->
   <g style="fill: #111827" transform="translate(285.486094 19.306563) scale(0.23 -0.23)">
    <defs>
     <path id="DejaVuSans-Bold-50" d="M 588 4666 
L 2584 4666 
Q 3475 4666 3951 4270 
Q 4428 3875 4428 3144 
Q 4428 2409 3951 2014 
Q 3475 1619 2584 1619 
L 1791 1619 
L 1791 0 
L 588 0 
L 588 4666 
z
M 1791 3794 
L 1791 2491 
L 2456 2491 
Q 2806 2491 2997 2661 
Q 3188 2831 3188 3144 
Q 3188 3456 2997 3625 
Q 2806 3794 2456 3794 
L 1791 3794 
z
" transform="scale(0.015625)"/>
     <path id="DejaVuSans-Bold-52" d="M 2297 2597 
Q 2675 2597 2839 2737 
Q 3003 2878 3003 3200 
Q 3003 3519 2839 3656 
Q 2675 3794 2297 3794 
L 1791 3794 
L 1791 2597 
L 2297 2597 
z
M 1791 1766 
L 1791 0 
L 588 0 
L 588 4666 
L 2425 4666 
Q 3347 4666 3776 4356 
Q 4206 4047 4206 3378 
Q 4206 2916 3982 2619 
Q 3759 2322 3309 2181 
Q 3556 2125 3751 1926 
Q 3947 1728 4147 1325 
L 4800 0 
L 3519 0 
L 2950 1159 
Q 2778 1509 2601 1637 
Q 2425 1766 2131 1766 
L 1791 1766 
z
" transform="scale(0.015625)"/>
     <path id="DejaVuSans-Bold-47" d="M 4781 347 
Q 4331 128 3847 18 
Q 3363 -91 2847 -91 
Q 1681 -91 1000 561 
Q 319 1213 319 2328 
Q 319 3456 1012 4103 
Q 1706 4750 2913 4750 
Q 3378 4750 3804 4662 
Q 4231 4575 4609 4403 
L 4609 3438 
Q 4219 3659 3833 3768 
Q 3447 3878 3059 3878 
Q 2341 3878 1952 3476 
Q 1563 3075 1563 2328 
Q 1563 1588 1938 1184 
Q 2313 781 3003 781 
Q 3191 781 3352 804 
Q 3513 828 3641 878 
L 3641 1784 
L 2906 1784 
L 2906 2591 
L 4781 2591 
L 4781 347 
z
" transform="scale(0.015625)"/>
    </defs>
    <use xlink:href="#DejaVuSans-Bold-50"/>
    <use xlink:href="#DejaVuSans-Bold-72" transform="translate(73.291016 0)"/>
    <use xlink:href="#DejaVuSans-Bold-6f" transform="translate(122.607422 0)"/>
    <use xlink:href="#DejaVuSans-Bold-62" transform="translate(191.308594 0)"/>
    <use xlink:href="#DejaVuSans-Bold-6c" transform="translate(262.890625 0)"/>
    <use xlink:href="#DejaVuSans-Bold-65" transform="translate(297.167969 0)"/>
    <use xlink:href="#DejaVuSans-Bold-6d" transform="translate(364.990234 0)"/>
    <use xlink:href="#DejaVuSans-Bold-20" transform="translate(469.189453 0)"/>
    <use xlink:href="#DejaVuSans-Bold-61" transform="translate(504.003906 0)"/>
    <use xlink:href="#DejaVuSans-Bold-6e" transform="translate(571.484375 0)"/>
    <use xlink:href="#DejaVuSans-Bold-64" transform="translate(642.675781 0)"/>
    <use xlink:href="#DejaVuSans-Bold-20" transform="translate(714.257812 0)"/>
    <use xlink:href="#DejaVuSans-Bold-52" transform="translate(749.072266 0)"/>
    <use xlink:href="#DejaVuSans-Bold-65" transform="translate(826.074219 0)"/>
    <use xlink:href="#DejaVuSans-Bold-73" transform="translate(893.896484 0)"/>
    <use xlink:href="#DejaVuSans-Bold-65" transform="translate(953.417969 0)"/>
    <use xlink:href="#DejaVuSans-Bold-61" transform="translate(1021.240234 0)"/>
    <use xlink:href="#DejaVuSans-Bold-72" transform="translate(1088.720703 0)"/>
    <use xlink:href="#DejaVuSans-Bold-63" transform="translate(1138.037109 0)"/>
    <use xlink:href="#DejaVuSans-Bold-68" transform="translate(1197.314453 0)"/>
    <use xlink:href="#DejaVuSans-Bold-20" transform="translate(1268.505859 0)"/>
    <use xlink:href="#DejaVuSans-Bold-47" transform="translate(1303.320312 0)"/>
    <use xlink:href="#DejaVuSans-Bold-61" transform="translate(1385.400391 0)"/>
    <use xlink:href="#DejaVuSans-Bold-70" transform="translate(1452.880859 0)"/>
   </g>
  </g>
  <g id="text_21">
   <!-- Ontology constraints block domain-impossible causal directions. -->
   <g style="fill: #111827" transform="translate(259.416211 493.337219) scale(0.125 -0.125)">
    <defs>
     <path id="DejaVuSans-6b" d="M 581 4863 
L 1159 4863 
L 1159 1991 
L 2875 3500 
L 3609 3500 
L 1753 1863 
L 3688 0 
L 2938 0 
L 1159 1709 
L 1159 0 
L 581 0 
L 581 4863 
z
" transform="scale(0.015625)"/>
     <path id="DejaVuSans-64" d="M 2906 2969 
L 2906 4863 
L 3481 4863 
L 3481 0 
L 2906 0 
L 2906 525 
Q 2725 213 2448 61 
Q 2172 -91 1784 -91 
Q 1150 -91 751 415 
Q 353 922 353 1747 
Q 353 2572 751 3078 
Q 1150 3584 1784 3584 
Q 2172 3584 2448 3432 
Q 2725 3281 2906 2969 
z
M 947 1747 
Q 947 1113 1208 752 
Q 1469 391 1925 391 
Q 2381 391 2643 752 
Q 2906 1113 2906 1747 
Q 2906 2381 2643 2742 
Q 2381 3103 1925 3103 
Q 1469 3103 1208 2742 
Q 947 2381 947 1747 
z
" transform="scale(0.015625)"/>
     <path id="DejaVuSans-2e" d="M 684 794 
L 1344 794 
L 1344 0 
L 684 0 
L 684 794 
z
" transform="scale(0.015625)"/>
    </defs>
    <use xlink:href="#DejaVuSans-4f"/>
    <use xlink:href="#DejaVuSans-6e" transform="translate(78.710938 0)"/>
    <use xlink:href="#DejaVuSans-74" transform="translate(142.089844 0)"/>
    <use xlink:href="#DejaVuSans-6f" transform="translate(181.298828 0)"/>
    <use xlink:href="#DejaVuSans-6c" transform="translate(242.480469 0)"/>
    <use xlink:href="#DejaVuSans-6f" transform="translate(270.263672 0)"/>
    <use xlink:href="#DejaVuSans-67" transform="translate(331.445312 0)"/>
    <use xlink:href="#DejaVuSans-79" transform="translate(394.921875 0)"/>
    <use xlink:href="#DejaVuSans-20" transform="translate(454.101562 0)"/>
    <use xlink:href="#DejaVuSans-63" transform="translate(485.888672 0)"/>
    <use xlink:href="#DejaVuSans-6f" transform="translate(540.869141 0)"/>
    <use xlink:href="#DejaVuSans-6e" transform="translate(602.050781 0)"/>
    <use xlink:href="#DejaVuSans-73" transform="translate(665.429688 0)"/>
    <use xlink:href="#DejaVuSans-74" transform="translate(717.529297 0)"/>
    <use xlink:href="#DejaVuSans-72" transform="translate(756.738281 0)"/>
    <use xlink:href="#DejaVuSans-61" transform="translate(797.851562 0)"/>
    <use xlink:href="#DejaVuSans-69" transform="translate(859.130859 0)"/>
    <use xlink:href="#DejaVuSans-6e" transform="translate(886.914062 0)"/>
    <use xlink:href="#DejaVuSans-74" transform="translate(950.292969 0)"/>
    <use xlink:href="#DejaVuSans-73" transform="translate(989.501953 0)"/>
    <use xlink:href="#DejaVuSans-20" transform="translate(1041.601562 0)"/>
    <use xlink:href="#DejaVuSans-62" transform="translate(1073.388672 0)"/>
    <use xlink:href="#DejaVuSans-6c" transform="translate(1136.865234 0)"/>
    <use xlink:href="#DejaVuSans-6f" transform="translate(1164.648438 0)"/>
    <use xlink:href="#DejaVuSans-63" transform="translate(1225.830078 0)"/>
    <use xlink:href="#DejaVuSans-6b" transform="translate(1280.810547 0)"/>
    <use xlink:href="#DejaVuSans-20" transform="translate(1338.720703 0)"/>
    <use xlink:href="#DejaVuSans-64" transform="translate(1370.507812 0)"/>
    <use xlink:href="#DejaVuSans-6f" transform="translate(1433.984375 0)"/>
    <use xlink:href="#DejaVuSans-6d" transform="translate(1495.166016 0)"/>
    <use xlink:href="#DejaVuSans-61" transform="translate(1592.578125 0)"/>
    <use xlink:href="#DejaVuSans-69" transform="translate(1653.857422 0)"/>
    <use xlink:href="#DejaVuSans-6e" transform="translate(1681.640625 0)"/>
    <use xlink:href="#DejaVuSans-2d" transform="translate(1745.019531 0)"/>
    <use xlink:href="#DejaVuSans-69" transform="translate(1781.103516 0)"/>
    <use xlink:href="#DejaVuSans-6d" transform="translate(1808.886719 0)"/>
    <use xlink:href="#DejaVuSans-70" transform="translate(1906.298828 0)"/>
    <use xlink:href="#DejaVuSans-6f" transform="translate(1969.775391 0)"/>
    <use xlink:href="#DejaVuSans-73" transform="translate(2030.957031 0)"/>
    <use xlink:href="#DejaVuSans-73" transform="translate(2083.056641 0)"/>
    <use xlink:href="#DejaVuSans-69" transform="translate(2135.15625 0)"/>
    <use xlink:href="#DejaVuSans-62" transform="translate(2162.939453 0)"/>
    <use xlink:href="#DejaVuSans-6c" transform="translate(2226.416016 0)"/>
    <use xlink:href="#DejaVuSans-65" transform="translate(2254.199219 0)"/>
    <use xlink:href="#DejaVuSans-20" transform="translate(2315.722656 0)"/>
    <use xlink:href="#DejaVuSans-63" transform="translate(2347.509766 0)"/>
    <use xlink:href="#DejaVuSans-61" transform="translate(2402.490234 0)"/>
    <use xlink:href="#DejaVuSans-75" transform="translate(2463.769531 0)"/>
    <use xlink:href="#DejaVuSans-73" transform="translate(2527.148438 0)"/>
    <use xlink:href="#DejaVuSans-61" transform="translate(2579.248047 0)"/>
    <use xlink:href="#DejaVuSans-6c" transform="translate(2640.527344 0)"/>
    <use xlink:href="#DejaVuSans-20" transform="translate(2668.310547 0)"/>
    <use xlink:href="#DejaVuSans-64" transform="translate(2700.097656 0)"/>
    <use xlink:href="#DejaVuSans-69" transform="translate(2763.574219 0)"/>
    <use xlink:href="#DejaVuSans-72" transform="translate(2791.357422 0)"/>
    <use xlink:href="#DejaVuSans-65" transform="translate(2830.220703 0)"/>
    <use xlink:href="#DejaVuSans-63" transform="translate(2891.744141 0)"/>
    <use xlink:href="#DejaVuSans-74" transform="translate(2946.724609 0)"/>
    <use xlink:href="#DejaVuSans-69" transform="translate(2985.933594 0)"/>
    <use xlink:href="#DejaVuSans-6f" transform="translate(3013.716797 0)"/>
    <use xlink:href="#DejaVuSans-6e" transform="translate(3074.898438 0)"/>
    <use xlink:href="#DejaVuSans-73" transform="translate(3138.277344 0)"/>
    <use xlink:href="#DejaVuSans-2e" transform="translate(3190.376953 0)"/>
   </g>
  </g>
 </g>
 <defs>
  <clipPath id="pf4e9b7c389">
   <rect x="43.056" y="49.68" width="404.744" height="403.488"/>
  </clipPath>
  <clipPath id="p6b7a392628">
   <rect x="473.8" y="49.68" width="404.744" height="403.488"/>
  </clipPath>
 </defs>
</svg>
