<?xml version="1.0" encoding="utf-8" standalone="no"?>
<!DOCTYPE svg PUBLIC "-//W3C//DTD SVG 1.1//EN"
  "http://www.w3.org/Graphics/SVG/1.1/DTD/svg11.dtd">
<svg xmlns:xlink="http://www.w3.org/1999/xlink" width="921.6pt" height="518.4pt" viewBox="0 0 921.6 518.4" xmlns="http://www.w3.org/2000/svg" version="1.1">
 <metadata>
  <rdf:RDF xmlns:dc="http://purl.org/dc/elements/1.1/" xmlns:cc="http://creativecommons.org/ns#" xmlns:rdf="http://www.w3.org/1999/02/22-rdf-syntax-ns#">
   <cc:Work>
    <dc:type rdf:resource="http://purl.org/dc/dcmitype/StillImage"/>
    <dc:date>2026-05-11T15:17:53.332194</dc:date>
    <dc:format>image/svg+xml</dc:format>
    <dc:creator>
     <cc:Agent>
      <dc:title>Matplotlib v3.10.8, https://matplotlib.org/</dc:title>
     </cc:Agent>
    </dc:creator>
   </cc:Work>
  </rdf:RDF>
 </metadata>
 <defs>
  <style type="text/css">*{stroke-linejoin: round; stroke-linecap: butt}</style>
 </defs>
 <g id="figure_1">
  <g id="patch_1">
   <path d="M 0 518.4 
L 921.6 518.4 
L 921.6 0 
L 0 0 
z
" style="fill: #ffffff"/>
  </g>
  <g id="axes_1">
   <g id="patch_2">
    <path d="M 102.488 362.82504 
L 896.976 362.82504 
L 896.976 72.304 
L 102.488 72.304 
z
" style="fill: #ffffff"/>
   </g>
   <g id="matplotlib.axis_1">
    <g id="xtick_1">
     <g id="line2d_1">
      <defs>
       <path id="m5519287a1e" d="M 0 0 
L 0 3.5 
" style="stroke: #374151; stroke-width: 0.8"/>
      </defs>
      <g>
       <use xlink:href="#m5519287a1e" x="138.601091" y="362.82504" style="fill: #374151; stroke: #374151; stroke-width: 0.8"/>
      </g>
     </g>
     <g id="text_1">
      <!-- 100 -->
      <g style="fill: #374151" transform="translate(128.102966 378.183321) scale(0.11 -0.11)">
       <defs>
        <path id="DejaVuSans-31" d="M 794 531 
L 1825 531 
L 1825 4091 
L 703 3866 
L 703 4441 
L 1819 4666 
L 2450 4666 
L 2450 531 
L 3481 531 
L 3481 0 
L 794 0 
L 794 531 
z
" transform="scale(0.015625)"/>
        <path id="DejaVuSans-30" d="M 2034 4250 
Q 1547 4250 1301 3770 
Q 1056 3291 1056 2328 
Q 1056 1369 1301 889 
Q 1547 409 2034 409 
Q 2525 409 2770 889 
Q 3016 1369 3016 2328 
Q 3016 3291 2770 3770 
Q 2525 4250 2034 4250 
z
M 2034 4750 
Q 2819 4750 3233 4129 
Q 3647 3509 3647 2328 
Q 3647 1150 3233 529 
Q 2819 -91 2034 -91 
Q 1250 -91 836 529 
Q 422 1150 422 2328 
Q 422 3509 836 4129 
Q 1250 4750 2034 4750 
z
" transform="scale(0.015625)"/>
       </defs>
       <use xlink:href="#DejaVuSans-31"/>
       <use xlink:href="#DejaVuSans-30" transform="translate(63.623047 0)"/>
       <use xlink:href="#DejaVuSans-30" transform="translate(127.246094 0)"/>
      </g>
     </g>
    </g>
    <g id="xtick_2">
     <g id="line2d_2">
      <g>
       <use xlink:href="#m5519287a1e" x="175.959461" y="362.82504" style="fill: #374151; stroke: #374151; stroke-width: 0.8"/>
      </g>
     </g>
     <g id="text_2">
      <!-- 250 -->
      <g style="fill: #374151" transform="translate(165.461336 378.183321) scale(0.11 -0.11)">
       <defs>
        <path id="DejaVuSans-32" d="M 1228 531 
L 3431 531 
L 3431 0 
L 469 0 
L 469 531 
Q 828 903 1448 1529 
Q 2069 2156 2228 2338 
Q 2531 2678 2651 2914 
Q 2772 3150 2772 3378 
Q 2772 3750 2511 3984 
Q 2250 4219 1831 4219 
Q 1534 4219 1204 4116 
Q 875 4013 500 3803 
L 500 4441 
Q 881 4594 1212 4672 
Q 1544 4750 1819 4750 
Q 2544 4750 2975 4387 
Q 3406 4025 3406 3419 
Q 3406 3131 3298 2873 
Q 3191 2616 2906 2266 
Q 2828 2175 2409 1742 
Q 1991 1309 1228 531 
z
" transform="scale(0.015625)"/>
        <path id="DejaVuSans-35" d="M 691 4666 
L 3169 4666 
L 3169 4134 
L 1269 4134 
L 1269 2991 
Q 1406 3038 1543 3061 
Q 1681 3084 1819 3084 
Q 2600 3084 3056 2656 
Q 3513 2228 3513 1497 
Q 3513 744 3044 326 
Q 2575 -91 1722 -91 
Q 1428 -91 1123 -41 
Q 819 9 494 109 
L 494 744 
Q 775 591 1075 516 
Q 1375 441 1709 441 
Q 2250 441 2565 725 
Q 2881 1009 2881 1497 
Q 2881 1984 2565 2268 
Q 2250 2553 1709 2553 
Q 1456 2553 1204 2497 
Q 953 2441 691 2322 
L 691 4666 
z
" transform="scale(0.015625)"/>
       </defs>
       <use xlink:href="#DejaVuSans-32"/>
       <use xlink:href="#DejaVuSans-35" transform="translate(63.623047 0)"/>
       <use xlink:href="#DejaVuSans-30" transform="translate(127.246094 0)"/>
      </g>
     </g>
    </g>
    <g id="xtick_3">
     <g id="line2d_3">
      <g>
       <use xlink:href="#m5519287a1e" x="238.223411" y="362.82504" style="fill: #374151; stroke: #374151; stroke-width: 0.8"/>
      </g>
     </g>
     <g id="text_3">
      <!-- 500 -->
      <g style="fill: #374151" transform="translate(227.725286 378.183321) scale(0.11 -0.11)">
       <use xlink:href="#DejaVuSans-35"/>
       <use xlink:href="#DejaVuSans-30" transform="translate(63.623047 0)"/>
       <use xlink:href="#DejaVuSans-30" transform="translate(127.246094 0)"/>
      </g>
     </g>
    </g>
    <g id="xtick_4">
     <g id="line2d_4">
      <g>
       <use xlink:href="#m5519287a1e" x="362.75131" y="362.82504" style="fill: #374151; stroke: #374151; stroke-width: 0.8"/>
      </g>
     </g>
     <g id="text_4">
      <!-- 1000 -->
      <g style="fill: #374151" transform="translate(348.75381 378.183321) scale(0.11 -0.11)">
       <use xlink:href="#DejaVuSans-31"/>
       <use xlink:href="#DejaVuSans-30" transform="translate(63.623047 0)"/>
       <use xlink:href="#DejaVuSans-30" transform="translate(127.246094 0)"/>
       <use xlink:href="#DejaVuSans-30" transform="translate(190.869141 0)"/>
      </g>
     </g>
    </g>
    <g id="xtick_5">
     <g id="line2d_5">
      <g>
       <use xlink:href="#m5519287a1e" x="611.80711" y="362.82504" style="fill: #374151; stroke: #374151; stroke-width: 0.8"/>
      </g>
     </g>
     <g id="text_5">
      <!-- 2000 -->
      <g style="fill: #374151" transform="translate(597.80961 378.183321) scale(0.11 -0.11)">
       <use xlink:href="#DejaVuSans-32"/>
       <use xlink:href="#DejaVuSans-30" transform="translate(63.623047 0)"/>
       <use xlink:href="#DejaVuSans-30" transform="translate(127.246094 0)"/>
       <use xlink:href="#DejaVuSans-30" transform="translate(190.869141 0)"/>
      </g>
     </g>
    </g>
    <g id="xtick_6">
     <g id="line2d_6">
      <g>
       <use xlink:href="#m5519287a1e" x="860.862909" y="362.82504" style="fill: #374151; stroke: #374151; stroke-width: 0.8"/>
      </g>
     </g>
     <g id="text_6">
      <!-- 3000 -->
      <g style="fill: #374151" transform="translate(846.865409 378.183321) scale(0.11 -0.11)">
       <defs>
        <path id="DejaVuSans-33" d="M 2597 2516 
Q 3050 2419 3304 2112 
Q 3559 1806 3559 1356 
Q 3559 666 3084 287 
Q 2609 -91 1734 -91 
Q 1441 -91 1130 -33 
Q 819 25 488 141 
L 488 750 
Q 750 597 1062 519 
Q 1375 441 1716 441 
Q 2309 441 2620 675 
Q 2931 909 2931 1356 
Q 2931 1769 2642 2001 
Q 2353 2234 1838 2234 
L 1294 2234 
L 1294 2753 
L 1863 2753 
Q 2328 2753 2575 2939 
Q 2822 3125 2822 3475 
Q 2822 3834 2567 4026 
Q 2313 4219 1838 4219 
Q 1578 4219 1281 4162 
Q 984 4106 628 3988 
L 628 4550 
Q 988 4650 1302 4700 
Q 1616 4750 1894 4750 
Q 2613 4750 3031 4423 
Q 3450 4097 3450 3541 
Q 3450 3153 3228 2886 
Q 3006 2619 2597 2516 
z
" transform="scale(0.015625)"/>
       </defs>
       <use xlink:href="#DejaVuSans-33"/>
       <use xlink:href="#DejaVuSans-30" transform="translate(63.623047 0)"/>
       <use xlink:href="#DejaVuSans-30" transform="translate(127.246094 0)"/>
       <use xlink:href="#DejaVuSans-30" transform="translate(190.869141 0)"/>
      </g>
     </g>
    </g>
    <g id="text_7">
     <!-- Sample size n -->
     <g style="fill: #374151" transform="translate(454.505203 394.348946) scale(0.13 -0.13)">
      <defs>
       <path id="DejaVuSans-53" d="M 3425 4513 
L 3425 3897 
Q 3066 4069 2747 4153 
Q 2428 4238 2131 4238 
Q 1616 4238 1336 4038 
Q 1056 3838 1056 3469 
Q 1056 3159 1242 3001 
Q 1428 2844 1947 2747 
L 2328 2669 
Q 3034 2534 3370 2195 
Q 3706 1856 3706 1288 
Q 3706 609 3251 259 
Q 2797 -91 1919 -91 
Q 1588 -91 1214 -16 
Q 841 59 441 206 
L 441 856 
Q 825 641 1194 531 
Q 1563 422 1919 422 
Q 2459 422 2753 634 
Q 3047 847 3047 1241 
Q 3047 1584 2836 1778 
Q 2625 1972 2144 2069 
L 1759 2144 
Q 1053 2284 737 2584 
Q 422 2884 422 3419 
Q 422 4038 858 4394 
Q 1294 4750 2059 4750 
Q 2388 4750 2728 4690 
Q 3069 4631 3425 4513 
z
" transform="scale(0.015625)"/>
       <path id="DejaVuSans-61" d="M 2194 1759 
Q 1497 1759 1228 1600 
Q 959 1441 959 1056 
Q 959 750 1161 570 
Q 1363 391 1709 391 
Q 2188 391 2477 730 
Q 2766 1069 2766 1631 
L 2766 1759 
L 2194 1759 
z
M 3341 1997 
L 3341 0 
L 2766 0 
L 2766 531 
Q 2569 213 2275 61 
Q 1981 -91 1556 -91 
Q 1019 -91 701 211 
Q 384 513 384 1019 
Q 384 1609 779 1909 
Q 1175 2209 1959 2209 
L 2766 2209 
L 2766 2266 
Q 2766 2663 2505 2880 
Q 2244 3097 1772 3097 
Q 1472 3097 1187 3025 
Q 903 2953 641 2809 
L 641 3341 
Q 956 3463 1253 3523 
Q 1550 3584 1831 3584 
Q 2591 3584 2966 3190 
Q 3341 2797 3341 1997 
z
" transform="scale(0.015625)"/>
       <path id="DejaVuSans-6d" d="M 3328 2828 
Q 3544 3216 3844 3400 
Q 4144 3584 4550 3584 
Q 5097 3584 5394 3201 
Q 5691 2819 5691 2113 
L 5691 0 
L 5113 0 
L 5113 2094 
Q 5113 2597 4934 2840 
Q 4756 3084 4391 3084 
Q 3944 3084 3684 2787 
Q 3425 2491 3425 1978 
L 3425 0 
L 2847 0 
L 2847 2094 
Q 2847 2600 2669 2842 
Q 2491 3084 2119 3084 
Q 1678 3084 1418 2786 
Q 1159 2488 1159 1978 
L 1159 0 
L 581 0 
L 581 3500 
L 1159 3500 
L 1159 2956 
Q 1356 3278 1631 3431 
Q 1906 3584 2284 3584 
Q 2666 3584 2933 3390 
Q 3200 3197 3328 2828 
z
" transform="scale(0.015625)"/>
       <path id="DejaVuSans-70" d="M 1159 525 
L 1159 -1331 
L 581 -1331 
L 581 3500 
L 1159 3500 
L 1159 2969 
Q 1341 3281 1617 3432 
Q 1894 3584 2278 3584 
Q 2916 3584 3314 3078 
Q 3713 2572 3713 1747 
Q 3713 922 3314 415 
Q 2916 -91 2278 -91 
Q 1894 -91 1617 61 
Q 1341 213 1159 525 
z
M 3116 1747 
Q 3116 2381 2855 2742 
Q 2594 3103 2138 3103 
Q 1681 3103 1420 2742 
Q 1159 2381 1159 1747 
Q 1159 1113 1420 752 
Q 1681 391 2138 391 
Q 2594 391 2855 752 
Q 3116 1113 3116 1747 
z
" transform="scale(0.015625)"/>
       <path id="DejaVuSans-6c" d="M 603 4863 
L 1178 4863 
L 1178 0 
L 603 0 
L 603 4863 
z
" transform="scale(0.015625)"/>
       <path id="DejaVuSans-65" d="M 3597 1894 
L 3597 1613 
L 953 1613 
Q 991 1019 1311 708 
Q 1631 397 2203 397 
Q 2534 397 2845 478 
Q 3156 559 3463 722 
L 3463 178 
Q 3153 47 2828 -22 
Q 2503 -91 2169 -91 
Q 1331 -91 842 396 
Q 353 884 353 1716 
Q 353 2575 817 3079 
Q 1281 3584 2069 3584 
Q 2775 3584 3186 3129 
Q 3597 2675 3597 1894 
z
M 3022 2063 
Q 3016 2534 2758 2815 
Q 2500 3097 2075 3097 
Q 1594 3097 1305 2825 
Q 1016 2553 972 2059 
L 3022 2063 
z
" transform="scale(0.015625)"/>
       <path id="DejaVuSans-20" transform="scale(0.015625)"/>
       <path id="DejaVuSans-73" d="M 2834 3397 
L 2834 2853 
Q 2591 2978 2328 3040 
Q 2066 3103 1784 3103 
Q 1356 3103 1142 2972 
Q 928 2841 928 2578 
Q 928 2378 1081 2264 
Q 1234 2150 1697 2047 
L 1894 2003 
Q 2506 1872 2764 1633 
Q 3022 1394 3022 966 
Q 3022 478 2636 193 
Q 2250 -91 1575 -91 
Q 1294 -91 989 -36 
Q 684 19 347 128 
L 347 722 
Q 666 556 975 473 
Q 1284 391 1588 391 
Q 1994 391 2212 530 
Q 2431 669 2431 922 
Q 2431 1156 2273 1281 
Q 2116 1406 1581 1522 
L 1381 1569 
Q 847 1681 609 1914 
Q 372 2147 372 2553 
Q 372 3047 722 3315 
Q 1072 3584 1716 3584 
Q 2034 3584 2315 3537 
Q 2597 3491 2834 3397 
z
" transform="scale(0.015625)"/>
       <path id="DejaVuSans-69" d="M 603 3500 
L 1178 3500 
L 1178 0 
L 603 0 
L 603 3500 
z
M 603 4863 
L 1178 4863 
L 1178 4134 
L 603 4134 
L 603 4863 
z
" transform="scale(0.015625)"/>
       <path id="DejaVuSans-7a" d="M 353 3500 
L 3084 3500 
L 3084 2975 
L 922 459 
L 3084 459 
L 3084 0 
L 275 0 
L 275 525 
L 2438 3041 
L 353 3041 
L 353 3500 
z
" transform="scale(0.015625)"/>
       <path id="DejaVuSans-6e" d="M 3513 2113 
L 3513 0 
L 2938 0 
L 2938 2094 
Q 2938 2591 2744 2837 
Q 2550 3084 2163 3084 
Q 1697 3084 1428 2787 
Q 1159 2491 1159 1978 
L 1159 0 
L 581 0 
L 581 3500 
L 1159 3500 
L 1159 2956 
Q 1366 3272 1645 3428 
Q 1925 3584 2291 3584 
Q 2894 3584 3203 3211 
Q 3513 2838 3513 2113 
z
" transform="scale(0.015625)"/>
      </defs>
      <use xlink:href="#DejaVuSans-53"/>
      <use xlink:href="#DejaVuSans-61" transform="translate(63.476562 0)"/>
      <use xlink:href="#DejaVuSans-6d" transform="translate(124.755859 0)"/>
      <use xlink:href="#DejaVuSans-70" transform="translate(222.167969 0)"/>
      <use xlink:href="#DejaVuSans-6c" transform="translate(285.644531 0)"/>
      <use xlink:href="#DejaVuSans-65" transform="translate(313.427734 0)"/>
      <use xlink:href="#DejaVuSans-20" transform="translate(374.951172 0)"/>
      <use xlink:href="#DejaVuSans-73" transform="translate(406.738281 0)"/>
      <use xlink:href="#DejaVuSans-69" transform="translate(458.837891 0)"/>
      <use xlink:href="#DejaVuSans-7a" transform="translate(486.621094 0)"/>
      <use xlink:href="#DejaVuSans-65" transform="translate(539.111328 0)"/>
      <use xlink:href="#DejaVuSans-20" transform="translate(600.634766 0)"/>
      <use xlink:href="#DejaVuSans-6e" transform="translate(632.421875 0)"/>
     </g>
    </g>
   </g>
   <g id="matplotlib.axis_2">
    <g id="ytick_1">
     <g id="line2d_7">
      <path d="M 102.488 343.456971 
L 896.976 343.456971 
" clip-path="url(#pff96867ce3)" style="fill: none; stroke: #e5e7eb; stroke-opacity: 0.7; stroke-width: 0.8; stroke-linecap: square"/>
     </g>
     <g id="line2d_8">
      <defs>
       <path id="mfc07dae522" d="M 0 0 
L -3.5 0 
" style="stroke: #374151; stroke-width: 0.8"/>
      </defs>
      <g>
       <use xlink:href="#mfc07dae522" x="102.488" y="343.456971" style="fill: #374151; stroke: #374151; stroke-width: 0.8"/>
      </g>
     </g>
     <g id="text_8">
      <!-- 0.3 -->
      <g style="fill: #374151" transform="translate(77.994563 347.636111) scale(0.11 -0.11)">
       <defs>
        <path id="DejaVuSans-2e" d="M 684 794 
L 1344 794 
L 1344 0 
L 684 0 
L 684 794 
z
" transform="scale(0.015625)"/>
       </defs>
       <use xlink:href="#DejaVuSans-30"/>
       <use xlink:href="#DejaVuSans-2e" transform="translate(63.623047 0)"/>
       <use xlink:href="#DejaVuSans-33" transform="translate(95.410156 0)"/>
      </g>
     </g>
    </g>
    <g id="ytick_2">
     <g id="line2d_9">
      <path d="M 102.488 304.720832 
L 896.976 304.720832 
" clip-path="url(#pff96867ce3)" style="fill: none; stroke: #e5e7eb; stroke-opacity: 0.7; stroke-width: 0.8; stroke-linecap: square"/>
     </g>
     <g id="line2d_10">
      <g>
       <use xlink:href="#mfc07dae522" x="102.488" y="304.720832" style="fill: #374151; stroke: #374151; stroke-width: 0.8"/>
      </g>
     </g>
     <g id="text_9">
      <!-- 0.4 -->
      <g style="fill: #374151" transform="translate(77.994563 308.899973) scale(0.11 -0.11)">
       <defs>
        <path id="DejaVuSans-34" d="M 2419 4116 
L 825 1625 
L 2419 1625 
L 2419 4116 
z
M 2253 4666 
L 3047 4666 
L 3047 1625 
L 3713 1625 
L 3713 1100 
L 3047 1100 
L 3047 0 
L 2419 0 
L 2419 1100 
L 313 1100 
L 313 1709 
L 2253 4666 
z
" transform="scale(0.015625)"/>
       </defs>
       <use xlink:href="#DejaVuSans-30"/>
       <use xlink:href="#DejaVuSans-2e" transform="translate(63.623047 0)"/>
       <use xlink:href="#DejaVuSans-34" transform="translate(95.410156 0)"/>
      </g>
     </g>
    </g>
    <g id="ytick_3">
     <g id="line2d_11">
      <path d="M 102.488 265.984693 
L 896.976 265.984693 
" clip-path="url(#pff96867ce3)" style="fill: none; stroke: #e5e7eb; stroke-opacity: 0.7; stroke-width: 0.8; stroke-linecap: square"/>
     </g>
     <g id="line2d_12">
      <g>
       <use xlink:href="#mfc07dae522" x="102.488" y="265.984693" style="fill: #374151; stroke: #374151; stroke-width: 0.8"/>
      </g>
     </g>
     <g id="text_10">
      <!-- 0.5 -->
      <g style="fill: #374151" transform="translate(77.994563 270.163834) scale(0.11 -0.11)">
       <use xlink:href="#DejaVuSans-30"/>
       <use xlink:href="#DejaVuSans-2e" transform="translate(63.623047 0)"/>
       <use xlink:href="#DejaVuSans-35" transform="translate(95.410156 0)"/>
      </g>
     </g>
    </g>
    <g id="ytick_4">
     <g id="line2d_13">
      <path d="M 102.488 227.248555 
L 896.976 227.248555 
" clip-path="url(#pff96867ce3)" style="fill: none; stroke: #e5e7eb; stroke-opacity: 0.7; stroke-width: 0.8; stroke-linecap: square"/>
     </g>
     <g id="line2d_14">
      <g>
       <use xlink:href="#mfc07dae522" x="102.488" y="227.248555" style="fill: #374151; stroke: #374151; stroke-width: 0.8"/>
      </g>
     </g>
     <g id="text_11">
      <!-- 0.6 -->
      <g style="fill: #374151" transform="translate(77.994563 231.427695) scale(0.11 -0.11)">
       <defs>
        <path id="DejaVuSans-36" d="M 2113 2584 
Q 1688 2584 1439 2293 
Q 1191 2003 1191 1497 
Q 1191 994 1439 701 
Q 1688 409 2113 409 
Q 2538 409 2786 701 
Q 3034 994 3034 1497 
Q 3034 2003 2786 2293 
Q 2538 2584 2113 2584 
z
M 3366 4563 
L 3366 3988 
Q 3128 4100 2886 4159 
Q 2644 4219 2406 4219 
Q 1781 4219 1451 3797 
Q 1122 3375 1075 2522 
Q 1259 2794 1537 2939 
Q 1816 3084 2150 3084 
Q 2853 3084 3261 2657 
Q 3669 2231 3669 1497 
Q 3669 778 3244 343 
Q 2819 -91 2113 -91 
Q 1303 -91 875 529 
Q 447 1150 447 2328 
Q 447 3434 972 4092 
Q 1497 4750 2381 4750 
Q 2619 4750 2861 4703 
Q 3103 4656 3366 4563 
z
" transform="scale(0.015625)"/>
       </defs>
       <use xlink:href="#DejaVuSans-30"/>
       <use xlink:href="#DejaVuSans-2e" transform="translate(63.623047 0)"/>
       <use xlink:href="#DejaVuSans-36" transform="translate(95.410156 0)"/>
      </g>
     </g>
    </g>
    <g id="ytick_5">
     <g id="line2d_15">
      <path d="M 102.488 188.512416 
L 896.976 188.512416 
" clip-path="url(#pff96867ce3)" style="fill: none; stroke: #e5e7eb; stroke-opacity: 0.7; stroke-width: 0.8; stroke-linecap: square"/>
     </g>
     <g id="line2d_16">
      <g>
       <use xlink:href="#mfc07dae522" x="102.488" y="188.512416" style="fill: #374151; stroke: #374151; stroke-width: 0.8"/>
      </g>
     </g>
     <g id="text_12">
      <!-- 0.7 -->
      <g style="fill: #374151" transform="translate(77.994563 192.691557) scale(0.11 -0.11)">
       <defs>
        <path id="DejaVuSans-37" d="M 525 4666 
L 3525 4666 
L 3525 4397 
L 1831 0 
L 1172 0 
L 2766 4134 
L 525 4134 
L 525 4666 
z
" transform="scale(0.015625)"/>
       </defs>
       <use xlink:href="#DejaVuSans-30"/>
       <use xlink:href="#DejaVuSans-2e" transform="translate(63.623047 0)"/>
       <use xlink:href="#DejaVuSans-37" transform="translate(95.410156 0)"/>
      </g>
     </g>
    </g>
    <g id="ytick_6">
     <g id="line2d_17">
      <path d="M 102.488 149.776277 
L 896.976 149.776277 
" clip-path="url(#pff96867ce3)" style="fill: none; stroke: #e5e7eb; stroke-opacity: 0.7; stroke-width: 0.8; stroke-linecap: square"/>
     </g>
     <g id="line2d_18">
      <g>
       <use xlink:href="#mfc07dae522" x="102.488" y="149.776277" style="fill: #374151; stroke: #374151; stroke-width: 0.8"/>
      </g>
     </g>
     <g id="text_13">
      <!-- 0.8 -->
      <g style="fill: #374151" transform="translate(77.994563 153.955418) scale(0.11 -0.11)">
       <defs>
        <path id="DejaVuSans-38" d="M 2034 2216 
Q 1584 2216 1326 1975 
Q 1069 1734 1069 1313 
Q 1069 891 1326 650 
Q 1584 409 2034 409 
Q 2484 409 2743 651 
Q 3003 894 3003 1313 
Q 3003 1734 2745 1975 
Q 2488 2216 2034 2216 
z
M 1403 2484 
Q 997 2584 770 2862 
Q 544 3141 544 3541 
Q 544 4100 942 4425 
Q 1341 4750 2034 4750 
Q 2731 4750 3128 4425 
Q 3525 4100 3525 3541 
Q 3525 3141 3298 2862 
Q 3072 2584 2669 2484 
Q 3125 2378 3379 2068 
Q 3634 1759 3634 1313 
Q 3634 634 3220 271 
Q 2806 -91 2034 -91 
Q 1263 -91 848 271 
Q 434 634 434 1313 
Q 434 1759 690 2068 
Q 947 2378 1403 2484 
z
M 1172 3481 
Q 1172 3119 1398 2916 
Q 1625 2713 2034 2713 
Q 2441 2713 2670 2916 
Q 2900 3119 2900 3481 
Q 2900 3844 2670 4047 
Q 2441 4250 2034 4250 
Q 1625 4250 1398 4047 
Q 1172 3844 1172 3481 
z
" transform="scale(0.015625)"/>
       </defs>
       <use xlink:href="#DejaVuSans-30"/>
       <use xlink:href="#DejaVuSans-2e" transform="translate(63.623047 0)"/>
       <use xlink:href="#DejaVuSans-38" transform="translate(95.410156 0)"/>
      </g>
     </g>
    </g>
    <g id="ytick_7">
     <g id="line2d_19">
      <path d="M 102.488 111.040139 
L 896.976 111.040139 
" clip-path="url(#pff96867ce3)" style="fill: none; stroke: #e5e7eb; stroke-opacity: 0.7; stroke-width: 0.8; stroke-linecap: square"/>
     </g>
     <g id="line2d_20">
      <g>
       <use xlink:href="#mfc07dae522" x="102.488" y="111.040139" style="fill: #374151; stroke: #374151; stroke-width: 0.8"/>
      </g>
     </g>
     <g id="text_14">
      <!-- 0.9 -->
      <g style="fill: #374151" transform="translate(77.994563 115.219279) scale(0.11 -0.11)">
       <defs>
        <path id="DejaVuSans-39" d="M 703 97 
L 703 672 
Q 941 559 1184 500 
Q 1428 441 1663 441 
Q 2288 441 2617 861 
Q 2947 1281 2994 2138 
Q 2813 1869 2534 1725 
Q 2256 1581 1919 1581 
Q 1219 1581 811 2004 
Q 403 2428 403 3163 
Q 403 3881 828 4315 
Q 1253 4750 1959 4750 
Q 2769 4750 3195 4129 
Q 3622 3509 3622 2328 
Q 3622 1225 3098 567 
Q 2575 -91 1691 -91 
Q 1453 -91 1209 -44 
Q 966 3 703 97 
z
M 1959 2075 
Q 2384 2075 2632 2365 
Q 2881 2656 2881 3163 
Q 2881 3666 2632 3958 
Q 2384 4250 1959 4250 
Q 1534 4250 1286 3958 
Q 1038 3666 1038 3163 
Q 1038 2656 1286 2365 
Q 1534 2075 1959 2075 
z
" transform="scale(0.015625)"/>
       </defs>
       <use xlink:href="#DejaVuSans-30"/>
       <use xlink:href="#DejaVuSans-2e" transform="translate(63.623047 0)"/>
       <use xlink:href="#DejaVuSans-39" transform="translate(95.410156 0)"/>
      </g>
     </g>
    </g>
    <g id="ytick_8">
     <g id="line2d_21">
      <path d="M 102.488 72.304 
L 896.976 72.304 
" clip-path="url(#pff96867ce3)" style="fill: none; stroke: #e5e7eb; stroke-opacity: 0.7; stroke-width: 0.8; stroke-linecap: square"/>
     </g>
     <g id="line2d_22">
      <g>
       <use xlink:href="#mfc07dae522" x="102.488" y="72.304" style="fill: #374151; stroke: #374151; stroke-width: 0.8"/>
      </g>
     </g>
     <g id="text_15">
      <!-- 1.0 -->
      <g style="fill: #374151" transform="translate(77.994563 76.483141) scale(0.11 -0.11)">
       <use xlink:href="#DejaVuSans-31"/>
       <use xlink:href="#DejaVuSans-2e" transform="translate(63.623047 0)"/>
       <use xlink:href="#DejaVuSans-30" transform="translate(95.410156 0)"/>
      </g>
     </g>
    </g>
    <g id="text_16">
     <!-- F1 score -->
     <g style="fill: #374151" transform="translate(71.290969 244.967098) rotate(-90) scale(0.13 -0.13)">
      <defs>
       <path id="DejaVuSans-46" d="M 628 4666 
L 3309 4666 
L 3309 4134 
L 1259 4134 
L 1259 2759 
L 3109 2759 
L 3109 2228 
L 1259 2228 
L 1259 0 
L 628 0 
L 628 4666 
z
" transform="scale(0.015625)"/>
       <path id="DejaVuSans-63" d="M 3122 3366 
L 3122 2828 
Q 2878 2963 2633 3030 
Q 2388 3097 2138 3097 
Q 1578 3097 1268 2742 
Q 959 2388 959 1747 
Q 959 1106 1268 751 
Q 1578 397 2138 397 
Q 2388 397 2633 464 
Q 2878 531 3122 666 
L 3122 134 
Q 2881 22 2623 -34 
Q 2366 -91 2075 -91 
Q 1284 -91 818 406 
Q 353 903 353 1747 
Q 353 2603 823 3093 
Q 1294 3584 2113 3584 
Q 2378 3584 2631 3529 
Q 2884 3475 3122 3366 
z
" transform="scale(0.015625)"/>
       <path id="DejaVuSans-6f" d="M 1959 3097 
Q 1497 3097 1228 2736 
Q 959 2375 959 1747 
Q 959 1119 1226 758 
Q 1494 397 1959 397 
Q 2419 397 2687 759 
Q 2956 1122 2956 1747 
Q 2956 2369 2687 2733 
Q 2419 3097 1959 3097 
z
M 1959 3584 
Q 2709 3584 3137 3096 
Q 3566 2609 3566 1747 
Q 3566 888 3137 398 
Q 2709 -91 1959 -91 
Q 1206 -91 779 398 
Q 353 888 353 1747 
Q 353 2609 779 3096 
Q 1206 3584 1959 3584 
z
" transform="scale(0.015625)"/>
       <path id="DejaVuSans-72" d="M 2631 2963 
Q 2534 3019 2420 3045 
Q 2306 3072 2169 3072 
Q 1681 3072 1420 2755 
Q 1159 2438 1159 1844 
L 1159 0 
L 581 0 
L 581 3500 
L 1159 3500 
L 1159 2956 
Q 1341 3275 1631 3429 
Q 1922 3584 2338 3584 
Q 2397 3584 2469 3576 
Q 2541 3569 2628 3553 
L 2631 2963 
z
" transform="scale(0.015625)"/>
      </defs>
      <use xlink:href="#DejaVuSans-46"/>
      <use xlink:href="#DejaVuSans-31" transform="translate(57.519531 0)"/>
      <use xlink:href="#DejaVuSans-20" transform="translate(121.142578 0)"/>
      <use xlink:href="#DejaVuSans-73" transform="translate(152.929688 0)"/>
      <use xlink:href="#DejaVuSans-63" transform="translate(205.029297 0)"/>
      <use xlink:href="#DejaVuSans-6f" transform="translate(260.009766 0)"/>
      <use xlink:href="#DejaVuSans-72" transform="translate(321.191406 0)"/>
      <use xlink:href="#DejaVuSans-65" transform="translate(360.054688 0)"/>
     </g>
    </g>
   </g>
   <g id="FillBetweenPolyCollection_1">
    <defs>
     <path id="m31dcb6c7ab" d="M 138.601091 -263.493842 
L 138.601091 -240.097215 
L 175.959461 -286.115747 
L 238.223411 -293.243197 
L 362.75131 -298.240159 
L 611.80711 -303.004704 
L 860.862909 -298.937409 
L 860.862909 -338.293326 
L 860.862909 -338.293326 
L 611.80711 -331.824391 
L 362.75131 -326.904901 
L 238.223411 -326.866165 
L 175.959461 -316.174991 
L 138.601091 -263.493842 
z
"/>
    </defs>
    <g clip-path="url(#pff96867ce3)">
     <use xlink:href="#m31dcb6c7ab" x="0" y="518.4" style="fill: #2a9d8f; fill-opacity: 0.1"/>
    </g>
   </g>
   <g id="FillBetweenPolyCollection_2">
    <defs>
     <path id="mfc332fa254" d="M 138.601091 -287.510248 
L 138.601091 -271.473487 
L 175.959461 -309.822264 
L 238.223411 -330.584834 
L 362.75131 -332.444169 
L 611.80711 -335.310643 
L 860.862909 -328.415611 
L 860.862909 -365.757248 
L 860.862909 -365.757248 
L 611.80711 -355.995741 
L 362.75131 -351.502349 
L 238.223411 -345.459512 
L 175.959461 -340.578758 
L 138.601091 -287.510248 
z
"/>
    </defs>
    <g clip-path="url(#pff96867ce3)">
     <use xlink:href="#mfc332fa254" x="0" y="518.4" style="fill: #2a9d8f; fill-opacity: 0.1"/>
    </g>
   </g>
   <g id="FillBetweenPolyCollection_3">
    <defs>
     <path id="m876b3a65d5" d="M 138.601091 -209.883026 
L 138.601091 -158.828796 
L 175.959461 -232.156306 
L 238.223411 -293.475614 
L 362.75131 -292.429738 
L 611.80711 -287.936346 
L 860.862909 -292.468474 
L 860.862909 -353.671573 
L 860.862909 -353.671573 
L 611.80711 -358.436118 
L 362.75131 -351.541086 
L 238.223411 -314.083239 
L 175.959461 -299.324771 
L 138.601091 -209.883026 
z
"/>
    </defs>
    <g clip-path="url(#pff96867ce3)">
     <use xlink:href="#m876b3a65d5" x="0" y="518.4" style="fill: #3b5b92; fill-opacity: 0.1"/>
    </g>
   </g>
   <g id="FillBetweenPolyCollection_4">
    <defs>
     <path id="me5ffcebfb0" d="M 138.601091 -364.014122 
L 138.601091 -345.110886 
L 175.959461 -378.850063 
L 238.223411 -408.67689 
L 362.75131 -416.307909 
L 611.80711 -413.170282 
L 860.862909 -421.227399 
L 860.862909 -427.812543 
L 860.862909 -427.812543 
L 611.80711 -424.636179 
L 362.75131 -430.562808 
L 238.223411 -422.699372 
L 175.959461 -410.458752 
L 138.601091 -364.014122 
z
"/>
    </defs>
    <g clip-path="url(#pff96867ce3)">
     <use xlink:href="#me5ffcebfb0" x="0" y="518.4" style="fill: #3b5b92; fill-opacity: 0.1"/>
    </g>
   </g>
   <g id="FillBetweenPolyCollection_5">
    <defs>
     <path id="m9e7300c467" d="M 138.601091 -289.369583 
L 138.601091 -238.547769 
L 175.959461 -287.858874 
L 238.223411 -275.385837 
L 362.75131 -286.038275 
L 611.80711 -278.872089 
L 860.862909 -300.680535 
L 860.862909 -351.424877 
L 860.862909 -351.424877 
L 611.80711 -338.215854 
L 362.75131 -353.439156 
L 238.223411 -335.969158 
L 175.959461 -314.431865 
L 138.601091 -289.369583 
z
"/>
    </defs>
    <g clip-path="url(#pff96867ce3)">
     <use xlink:href="#m9e7300c467" x="0" y="518.4" style="fill: #8a6f3d; fill-opacity: 0.1"/>
    </g>
   </g>
   <g id="FillBetweenPolyCollection_6">
    <defs>
     <path id="m70b6429fb7" d="M 138.601091 -310.248362 
L 138.601091 -265.779275 
L 175.959461 -305.94865 
L 238.223411 -298.743729 
L 362.75131 -310.519515 
L 611.80711 -300.796744 
L 860.862909 -320.513438 
L 860.862909 -371.645141 
L 860.862909 -371.645141 
L 611.80711 -357.971285 
L 362.75131 -375.286339 
L 238.223411 -355.221019 
L 175.959461 -338.641951 
L 138.601091 -310.248362 
z
"/>
    </defs>
    <g clip-path="url(#pff96867ce3)">
     <use xlink:href="#m70b6429fb7" x="0" y="518.4" style="fill: #8a6f3d; fill-opacity: 0.1"/>
    </g>
   </g>
   <g id="line2d_23">
    <path d="M 138.601091 266.604472 
L 175.959461 217.254631 
L 238.223411 208.345319 
L 362.75131 205.82747 
L 611.80711 200.985453 
L 860.862909 199.784632 
" clip-path="url(#pff96867ce3)" style="fill: none; stroke-dasharray: 8.14,3.52; stroke-dashoffset: 0; stroke: #2a9d8f; stroke-width: 2.2"/>
    <defs>
     <path id="mc33b52cde2" d="M 0 2.75 
C 0.729309 2.75 1.428845 2.460243 1.944544 1.944544 
C 2.460243 1.428845 2.75 0.729309 2.75 0 
C 2.75 -0.729309 2.460243 -1.428845 1.944544 -1.944544 
C 1.428845 -2.460243 0.729309 -2.75 0 -2.75 
C -0.729309 -2.75 -1.428845 -2.460243 -1.944544 -1.944544 
C -2.460243 -1.428845 -2.75 -0.729309 -2.75 0 
C -2.75 0.729309 -2.460243 1.428845 -1.944544 1.944544 
C -1.428845 2.460243 -0.729309 2.75 0 2.75 
z
" style="stroke: #2a9d8f"/>
    </defs>
    <g clip-path="url(#pff96867ce3)">
     <use xlink:href="#mc33b52cde2" x="138.601091" y="266.604472" style="fill: #2a9d8f; stroke: #2a9d8f"/>
     <use xlink:href="#mc33b52cde2" x="175.959461" y="217.254631" style="fill: #2a9d8f; stroke: #2a9d8f"/>
     <use xlink:href="#mc33b52cde2" x="238.223411" y="208.345319" style="fill: #2a9d8f; stroke: #2a9d8f"/>
     <use xlink:href="#mc33b52cde2" x="362.75131" y="205.82747" style="fill: #2a9d8f; stroke: #2a9d8f"/>
     <use xlink:href="#mc33b52cde2" x="611.80711" y="200.985453" style="fill: #2a9d8f; stroke: #2a9d8f"/>
     <use xlink:href="#mc33b52cde2" x="860.862909" y="199.784632" style="fill: #2a9d8f; stroke: #2a9d8f"/>
    </g>
   </g>
   <g id="line2d_24">
    <path d="M 138.601091 238.908132 
L 175.959461 193.199489 
L 238.223411 180.377827 
L 362.75131 176.426741 
L 611.80711 172.746808 
L 860.862909 171.31357 
" clip-path="url(#pff96867ce3)" style="fill: none; stroke: #2a9d8f; stroke-width: 2.2; stroke-linecap: square"/>
    <defs>
     <path id="m93f38d08be" d="M -2.75 2.75 
L 2.75 2.75 
L 2.75 -2.75 
L -2.75 -2.75 
z
" style="stroke: #2a9d8f; stroke-linejoin: miter"/>
    </defs>
    <g clip-path="url(#pff96867ce3)">
     <use xlink:href="#m93f38d08be" x="138.601091" y="238.908132" style="fill: #2a9d8f; stroke: #2a9d8f; stroke-linejoin: miter"/>
     <use xlink:href="#m93f38d08be" x="175.959461" y="193.199489" style="fill: #2a9d8f; stroke: #2a9d8f; stroke-linejoin: miter"/>
     <use xlink:href="#m93f38d08be" x="238.223411" y="180.377827" style="fill: #2a9d8f; stroke: #2a9d8f; stroke-linejoin: miter"/>
     <use xlink:href="#m93f38d08be" x="362.75131" y="176.426741" style="fill: #2a9d8f; stroke: #2a9d8f; stroke-linejoin: miter"/>
     <use xlink:href="#m93f38d08be" x="611.80711" y="172.746808" style="fill: #2a9d8f; stroke: #2a9d8f; stroke-linejoin: miter"/>
     <use xlink:href="#m93f38d08be" x="860.862909" y="171.31357" style="fill: #2a9d8f; stroke: #2a9d8f; stroke-linejoin: miter"/>
    </g>
   </g>
   <g id="line2d_25">
    <path d="M 138.601091 334.044089 
L 175.959461 252.659462 
L 238.223411 214.620573 
L 362.75131 196.414588 
L 611.80711 195.213768 
L 860.862909 195.329976 
" clip-path="url(#pff96867ce3)" style="fill: none; stroke-dasharray: 8.14,3.52; stroke-dashoffset: 0; stroke: #3b5b92; stroke-width: 2.2"/>
    <defs>
     <path id="m16bd20fde2" d="M 0 2.75 
C 0.729309 2.75 1.428845 2.460243 1.944544 1.944544 
C 2.460243 1.428845 2.75 0.729309 2.75 0 
C 2.75 -0.729309 2.460243 -1.428845 1.944544 -1.944544 
C 1.428845 -2.460243 0.729309 -2.75 0 -2.75 
C -0.729309 -2.75 -1.428845 -2.460243 -1.944544 -1.944544 
C -2.460243 -1.428845 -2.75 -0.729309 -2.75 0 
C -2.75 0.729309 -2.460243 1.428845 -1.944544 1.944544 
C -1.428845 2.460243 -0.729309 2.75 0 2.75 
z
" style="stroke: #3b5b92"/>
    </defs>
    <g clip-path="url(#pff96867ce3)">
     <use xlink:href="#m16bd20fde2" x="138.601091" y="334.044089" style="fill: #3b5b92; stroke: #3b5b92"/>
     <use xlink:href="#m16bd20fde2" x="175.959461" y="252.659462" style="fill: #3b5b92; stroke: #3b5b92"/>
     <use xlink:href="#m16bd20fde2" x="238.223411" y="214.620573" style="fill: #3b5b92; stroke: #3b5b92"/>
     <use xlink:href="#m16bd20fde2" x="362.75131" y="196.414588" style="fill: #3b5b92; stroke: #3b5b92"/>
     <use xlink:href="#m16bd20fde2" x="611.80711" y="195.213768" style="fill: #3b5b92; stroke: #3b5b92"/>
     <use xlink:href="#m16bd20fde2" x="860.862909" y="195.329976" style="fill: #3b5b92; stroke: #3b5b92"/>
    </g>
   </g>
   <g id="line2d_26">
    <path d="M 138.601091 163.837496 
L 175.959461 123.745592 
L 238.223411 102.711869 
L 362.75131 94.964641 
L 611.80711 99.496769 
L 860.862909 93.880029 
" clip-path="url(#pff96867ce3)" style="fill: none; stroke: #3b5b92; stroke-width: 2.2; stroke-linecap: square"/>
    <defs>
     <path id="m75e5eb340f" d="M -2.75 2.75 
L 2.75 2.75 
L 2.75 -2.75 
L -2.75 -2.75 
z
" style="stroke: #3b5b92; stroke-linejoin: miter"/>
    </defs>
    <g clip-path="url(#pff96867ce3)">
     <use xlink:href="#m75e5eb340f" x="138.601091" y="163.837496" style="fill: #3b5b92; stroke: #3b5b92; stroke-linejoin: miter"/>
     <use xlink:href="#m75e5eb340f" x="175.959461" y="123.745592" style="fill: #3b5b92; stroke: #3b5b92; stroke-linejoin: miter"/>
     <use xlink:href="#m75e5eb340f" x="238.223411" y="102.711869" style="fill: #3b5b92; stroke: #3b5b92; stroke-linejoin: miter"/>
     <use xlink:href="#m75e5eb340f" x="362.75131" y="94.964641" style="fill: #3b5b92; stroke: #3b5b92; stroke-linejoin: miter"/>
     <use xlink:href="#m75e5eb340f" x="611.80711" y="99.496769" style="fill: #3b5b92; stroke: #3b5b92; stroke-linejoin: miter"/>
     <use xlink:href="#m75e5eb340f" x="860.862909" y="93.880029" style="fill: #3b5b92; stroke: #3b5b92; stroke-linejoin: miter"/>
    </g>
   </g>
   <g id="line2d_27">
    <path d="M 138.601091 254.441324 
L 175.959461 217.254631 
L 238.223411 212.722503 
L 362.75131 198.661284 
L 611.80711 209.856028 
L 860.862909 192.347294 
" clip-path="url(#pff96867ce3)" style="fill: none; stroke-dasharray: 8.14,3.52; stroke-dashoffset: 0; stroke: #8a6f3d; stroke-width: 2.2"/>
    <defs>
     <path id="m656938f2ce" d="M 0 2.75 
C 0.729309 2.75 1.428845 2.460243 1.944544 1.944544 
C 2.460243 1.428845 2.75 0.729309 2.75 0 
C 2.75 -0.729309 2.460243 -1.428845 1.944544 -1.944544 
C 1.428845 -2.460243 0.729309 -2.75 0 -2.75 
C -0.729309 -2.75 -1.428845 -2.460243 -1.944544 -1.944544 
C -2.460243 -1.428845 -2.75 -0.729309 -2.75 0 
C -2.75 0.729309 -2.460243 1.428845 -1.944544 1.944544 
C -1.428845 2.460243 -0.729309 2.75 0 2.75 
z
" style="stroke: #8a6f3d"/>
    </defs>
    <g clip-path="url(#pff96867ce3)">
     <use xlink:href="#m656938f2ce" x="138.601091" y="254.441324" style="fill: #8a6f3d; stroke: #8a6f3d"/>
     <use xlink:href="#m656938f2ce" x="175.959461" y="217.254631" style="fill: #8a6f3d; stroke: #8a6f3d"/>
     <use xlink:href="#m656938f2ce" x="238.223411" y="212.722503" style="fill: #8a6f3d; stroke: #8a6f3d"/>
     <use xlink:href="#m656938f2ce" x="362.75131" y="198.661284" style="fill: #8a6f3d; stroke: #8a6f3d"/>
     <use xlink:href="#m656938f2ce" x="611.80711" y="209.856028" style="fill: #8a6f3d; stroke: #8a6f3d"/>
     <use xlink:href="#m656938f2ce" x="860.862909" y="192.347294" style="fill: #8a6f3d; stroke: #8a6f3d"/>
    </g>
   </g>
   <g id="line2d_28">
    <path d="M 138.601091 230.386182 
L 175.959461 196.104699 
L 238.223411 191.417626 
L 362.75131 175.497073 
L 611.80711 189.015986 
L 860.862909 172.32071 
" clip-path="url(#pff96867ce3)" style="fill: none; stroke: #8a6f3d; stroke-width: 2.2; stroke-linecap: square"/>
    <defs>
     <path id="m0e826f0061" d="M -2.75 2.75 
L 2.75 2.75 
L 2.75 -2.75 
L -2.75 -2.75 
z
" style="stroke: #8a6f3d; stroke-linejoin: miter"/>
    </defs>
    <g clip-path="url(#pff96867ce3)">
     <use xlink:href="#m0e826f0061" x="138.601091" y="230.386182" style="fill: #8a6f3d; stroke: #8a6f3d; stroke-linejoin: miter"/>
     <use xlink:href="#m0e826f0061" x="175.959461" y="196.104699" style="fill: #8a6f3d; stroke: #8a6f3d; stroke-linejoin: miter"/>
     <use xlink:href="#m0e826f0061" x="238.223411" y="191.417626" style="fill: #8a6f3d; stroke: #8a6f3d; stroke-linejoin: miter"/>
     <use xlink:href="#m0e826f0061" x="362.75131" y="175.497073" style="fill: #8a6f3d; stroke: #8a6f3d; stroke-linejoin: miter"/>
     <use xlink:href="#m0e826f0061" x="611.80711" y="189.015986" style="fill: #8a6f3d; stroke: #8a6f3d; stroke-linejoin: miter"/>
     <use xlink:href="#m0e826f0061" x="860.862909" y="172.32071" style="fill: #8a6f3d; stroke: #8a6f3d; stroke-linejoin: miter"/>
    </g>
   </g>
   <g id="patch_3">
    <path d="M 102.488 362.82504 
L 102.488 72.304 
" style="fill: none; stroke: #cbd5e1; stroke-width: 0.8; stroke-linejoin: miter; stroke-linecap: square"/>
   </g>
   <g id="patch_4">
    <path d="M 102.488 362.82504 
L 896.976 362.82504 
" style="fill: none; stroke: #cbd5e1; stroke-width: 0.8; stroke-linejoin: miter; stroke-linecap: square"/>
   </g>
   <g id="text_17">
    <!-- Sample-size sensitivity: F1 vs n -->
    <g style="fill: #111827" transform="translate(330.765594 56.304) scale(0.19 -0.19)">
     <defs>
      <path id="DejaVuSans-Bold-53" d="M 3834 4519 
L 3834 3531 
Q 3450 3703 3084 3790 
Q 2719 3878 2394 3878 
Q 1963 3878 1756 3759 
Q 1550 3641 1550 3391 
Q 1550 3203 1689 3098 
Q 1828 2994 2194 2919 
L 2706 2816 
Q 3484 2659 3812 2340 
Q 4141 2022 4141 1434 
Q 4141 663 3683 286 
Q 3225 -91 2284 -91 
Q 1841 -91 1394 -6 
Q 947 78 500 244 
L 500 1259 
Q 947 1022 1364 901 
Q 1781 781 2169 781 
Q 2563 781 2772 912 
Q 2981 1044 2981 1288 
Q 2981 1506 2839 1625 
Q 2697 1744 2272 1838 
L 1806 1941 
Q 1106 2091 782 2419 
Q 459 2747 459 3303 
Q 459 4000 909 4375 
Q 1359 4750 2203 4750 
Q 2588 4750 2994 4692 
Q 3400 4634 3834 4519 
z
" transform="scale(0.015625)"/>
      <path id="DejaVuSans-Bold-61" d="M 2106 1575 
Q 1756 1575 1579 1456 
Q 1403 1338 1403 1106 
Q 1403 894 1545 773 
Q 1688 653 1941 653 
Q 2256 653 2472 879 
Q 2688 1106 2688 1447 
L 2688 1575 
L 2106 1575 
z
M 3816 1997 
L 3816 0 
L 2688 0 
L 2688 519 
Q 2463 200 2181 54 
Q 1900 -91 1497 -91 
Q 953 -91 614 226 
Q 275 544 275 1050 
Q 275 1666 698 1953 
Q 1122 2241 2028 2241 
L 2688 2241 
L 2688 2328 
Q 2688 2594 2478 2717 
Q 2269 2841 1825 2841 
Q 1466 2841 1156 2769 
Q 847 2697 581 2553 
L 581 3406 
Q 941 3494 1303 3539 
Q 1666 3584 2028 3584 
Q 2975 3584 3395 3211 
Q 3816 2838 3816 1997 
z
" transform="scale(0.015625)"/>
      <path id="DejaVuSans-Bold-6d" d="M 3781 2919 
Q 3994 3244 4286 3414 
Q 4578 3584 4928 3584 
Q 5531 3584 5847 3212 
Q 6163 2841 6163 2131 
L 6163 0 
L 5038 0 
L 5038 1825 
Q 5041 1866 5042 1909 
Q 5044 1953 5044 2034 
Q 5044 2406 4934 2573 
Q 4825 2741 4581 2741 
Q 4263 2741 4089 2478 
Q 3916 2216 3909 1719 
L 3909 0 
L 2784 0 
L 2784 1825 
Q 2784 2406 2684 2573 
Q 2584 2741 2328 2741 
Q 2006 2741 1831 2477 
Q 1656 2213 1656 1722 
L 1656 0 
L 531 0 
L 531 3500 
L 1656 3500 
L 1656 2988 
Q 1863 3284 2130 3434 
Q 2397 3584 2719 3584 
Q 3081 3584 3359 3409 
Q 3638 3234 3781 2919 
z
" transform="scale(0.015625)"/>
      <path id="DejaVuSans-Bold-70" d="M 1656 506 
L 1656 -1331 
L 538 -1331 
L 538 3500 
L 1656 3500 
L 1656 2988 
Q 1888 3294 2169 3439 
Q 2450 3584 2816 3584 
Q 3463 3584 3878 3070 
Q 4294 2556 4294 1747 
Q 4294 938 3878 423 
Q 3463 -91 2816 -91 
Q 2450 -91 2169 54 
Q 1888 200 1656 506 
z
M 2400 2772 
Q 2041 2772 1848 2508 
Q 1656 2244 1656 1747 
Q 1656 1250 1848 986 
Q 2041 722 2400 722 
Q 2759 722 2948 984 
Q 3138 1247 3138 1747 
Q 3138 2247 2948 2509 
Q 2759 2772 2400 2772 
z
" transform="scale(0.015625)"/>
      <path id="DejaVuSans-Bold-6c" d="M 538 4863 
L 1656 4863 
L 1656 0 
L 538 0 
L 538 4863 
z
" transform="scale(0.015625)"/>
      <path id="DejaVuSans-Bold-65" d="M 4031 1759 
L 4031 1441 
L 1416 1441 
Q 1456 1047 1700 850 
Q 1944 653 2381 653 
Q 2734 653 3104 758 
Q 3475 863 3866 1075 
L 3866 213 
Q 3469 63 3072 -14 
Q 2675 -91 2278 -91 
Q 1328 -91 801 392 
Q 275 875 275 1747 
Q 275 2603 792 3093 
Q 1309 3584 2216 3584 
Q 3041 3584 3536 3087 
Q 4031 2591 4031 1759 
z
M 2881 2131 
Q 2881 2450 2695 2645 
Q 2509 2841 2209 2841 
Q 1884 2841 1681 2658 
Q 1478 2475 1428 2131 
L 2881 2131 
z
" transform="scale(0.015625)"/>
      <path id="DejaVuSans-Bold-2d" d="M 347 2297 
L 2309 2297 
L 2309 1388 
L 347 1388 
L 347 2297 
z
" transform="scale(0.015625)"/>
      <path id="DejaVuSans-Bold-73" d="M 3272 3391 
L 3272 2541 
Q 2913 2691 2578 2766 
Q 2244 2841 1947 2841 
Q 1628 2841 1473 2761 
Q 1319 2681 1319 2516 
Q 1319 2381 1436 2309 
Q 1553 2238 1856 2203 
L 2053 2175 
Q 2913 2066 3209 1816 
Q 3506 1566 3506 1031 
Q 3506 472 3093 190 
Q 2681 -91 1863 -91 
Q 1516 -91 1145 -36 
Q 775 19 384 128 
L 384 978 
Q 719 816 1070 734 
Q 1422 653 1784 653 
Q 2113 653 2278 743 
Q 2444 834 2444 1013 
Q 2444 1163 2330 1236 
Q 2216 1309 1875 1350 
L 1678 1375 
Q 931 1469 631 1722 
Q 331 1975 331 2491 
Q 331 3047 712 3315 
Q 1094 3584 1881 3584 
Q 2191 3584 2531 3537 
Q 2872 3491 3272 3391 
z
" transform="scale(0.015625)"/>
      <path id="DejaVuSans-Bold-69" d="M 538 3500 
L 1656 3500 
L 1656 0 
L 538 0 
L 538 3500 
z
M 538 4863 
L 1656 4863 
L 1656 3950 
L 538 3950 
L 538 4863 
z
" transform="scale(0.015625)"/>
      <path id="DejaVuSans-Bold-7a" d="M 366 3500 
L 3419 3500 
L 3419 2719 
L 1575 800 
L 3419 800 
L 3419 0 
L 288 0 
L 288 781 
L 2131 2700 
L 366 2700 
L 366 3500 
z
" transform="scale(0.015625)"/>
      <path id="DejaVuSans-Bold-20" transform="scale(0.015625)"/>
      <path id="DejaVuSans-Bold-6e" d="M 4056 2131 
L 4056 0 
L 2931 0 
L 2931 347 
L 2931 1631 
Q 2931 2084 2911 2256 
Q 2891 2428 2841 2509 
Q 2775 2619 2662 2680 
Q 2550 2741 2406 2741 
Q 2056 2741 1856 2470 
Q 1656 2200 1656 1722 
L 1656 0 
L 538 0 
L 538 3500 
L 1656 3500 
L 1656 2988 
Q 1909 3294 2193 3439 
Q 2478 3584 2822 3584 
Q 3428 3584 3742 3212 
Q 4056 2841 4056 2131 
z
" transform="scale(0.015625)"/>
      <path id="DejaVuSans-Bold-74" d="M 1759 4494 
L 1759 3500 
L 2913 3500 
L 2913 2700 
L 1759 2700 
L 1759 1216 
Q 1759 972 1856 886 
Q 1953 800 2241 800 
L 2816 800 
L 2816 0 
L 1856 0 
Q 1194 0 917 276 
Q 641 553 641 1216 
L 641 2700 
L 84 2700 
L 84 3500 
L 641 3500 
L 641 4494 
L 1759 4494 
z
" transform="scale(0.015625)"/>
      <path id="DejaVuSans-Bold-76" d="M 97 3500 
L 1216 3500 
L 2088 1081 
L 2956 3500 
L 4078 3500 
L 2700 0 
L 1472 0 
L 97 3500 
z
" transform="scale(0.015625)"/>
      <path id="DejaVuSans-Bold-79" d="M 78 3500 
L 1197 3500 
L 2138 1125 
L 2938 3500 
L 4056 3500 
L 2584 -331 
Q 2363 -916 2067 -1148 
Q 1772 -1381 1288 -1381 
L 641 -1381 
L 641 -647 
L 991 -647 
Q 1275 -647 1404 -556 
Q 1534 -466 1606 -231 
L 1638 -134 
L 78 3500 
z
" transform="scale(0.015625)"/>
      <path id="DejaVuSans-Bold-3a" d="M 716 3500 
L 1844 3500 
L 1844 2291 
L 716 2291 
L 716 3500 
z
M 716 1209 
L 1844 1209 
L 1844 0 
L 716 0 
L 716 1209 
z
" transform="scale(0.015625)"/>
      <path id="DejaVuSans-Bold-46" d="M 588 4666 
L 3834 4666 
L 3834 3756 
L 1791 3756 
L 1791 2888 
L 3713 2888 
L 3713 1978 
L 1791 1978 
L 1791 0 
L 588 0 
L 588 4666 
z
" transform="scale(0.015625)"/>
      <path id="DejaVuSans-Bold-31" d="M 750 831 
L 1813 831 
L 1813 3847 
L 722 3622 
L 722 4441 
L 1806 4666 
L 2950 4666 
L 2950 831 
L 4013 831 
L 4013 0 
L 750 0 
L 750 831 
z
" transform="scale(0.015625)"/>
     </defs>
     <use xlink:href="#DejaVuSans-Bold-53"/>
     <use xlink:href="#DejaVuSans-Bold-61" transform="translate(72.021484 0)"/>
     <use xlink:href="#DejaVuSans-Bold-6d" transform="translate(139.501953 0)"/>
     <use xlink:href="#DejaVuSans-Bold-70" transform="translate(243.701172 0)"/>
     <use xlink:href="#DejaVuSans-Bold-6c" transform="translate(315.283203 0)"/>
     <use xlink:href="#DejaVuSans-Bold-65" transform="translate(349.560547 0)"/>
     <use xlink:href="#DejaVuSans-Bold-2d" transform="translate(417.382812 0)"/>
     <use xlink:href="#DejaVuSans-Bold-73" transform="translate(458.886719 0)"/>
     <use xlink:href="#DejaVuSans-Bold-69" transform="translate(518.408203 0)"/>
     <use xlink:href="#DejaVuSans-Bold-7a" transform="translate(552.685547 0)"/>
     <use xlink:href="#DejaVuSans-Bold-65" transform="translate(610.888672 0)"/>
     <use xlink:href="#DejaVuSans-Bold-20" transform="translate(678.710938 0)"/>
     <use xlink:href="#DejaVuSans-Bold-73" transform="translate(713.525391 0)"/>
     <use xlink:href="#DejaVuSans-Bold-65" transform="translate(773.046875 0)"/>
     <use xlink:href="#DejaVuSans-Bold-6e" transform="translate(840.869141 0)"/>
     <use xlink:href="#DejaVuSans-Bold-73" transform="translate(912.060547 0)"/>
     <use xlink:href="#DejaVuSans-Bold-69" transform="translate(971.582031 0)"/>
     <use xlink:href="#DejaVuSans-Bold-74" transform="translate(1005.859375 0)"/>
     <use xlink:href="#DejaVuSans-Bold-69" transform="translate(1053.662109 0)"/>
     <use xlink:href="#DejaVuSans-Bold-76" transform="translate(1087.939453 0)"/>
     <use xlink:href="#DejaVuSans-Bold-69" transform="translate(1153.125 0)"/>
     <use xlink:href="#DejaVuSans-Bold-74" transform="translate(1187.402344 0)"/>
     <use xlink:href="#DejaVuSans-Bold-79" transform="translate(1235.205078 0)"/>
     <use xlink:href="#DejaVuSans-Bold-3a" transform="translate(1300.390625 0)"/>
     <use xlink:href="#DejaVuSans-Bold-20" transform="translate(1340.380859 0)"/>
     <use xlink:href="#DejaVuSans-Bold-46" transform="translate(1375.195312 0)"/>
     <use xlink:href="#DejaVuSans-Bold-31" transform="translate(1443.505859 0)"/>
     <use xlink:href="#DejaVuSans-Bold-20" transform="translate(1513.085938 0)"/>
     <use xlink:href="#DejaVuSans-Bold-76" transform="translate(1547.900391 0)"/>
     <use xlink:href="#DejaVuSans-Bold-73" transform="translate(1613.085938 0)"/>
     <use xlink:href="#DejaVuSans-Bold-20" transform="translate(1672.607422 0)"/>
     <use xlink:href="#DejaVuSans-Bold-6e" transform="translate(1707.421875 0)"/>
    </g>
   </g>
   <g id="legend_1">
    <g id="line2d_29">
     <path d="M 213.549578 396.018966 
L 227.724578 396.018966 
L 241.899578 396.018966 
" style="fill: none; stroke-dasharray: 8.14,3.52; stroke-dashoffset: 0; stroke: #2a9d8f; stroke-width: 2.2"/>
     <g>
      <use xlink:href="#mc33b52cde2" x="227.724578" y="396.018966" style="fill: #2a9d8f; stroke: #2a9d8f"/>
     </g>
    </g>
    <g id="text_18">
     <!-- GES unconstrained -->
     <g transform="translate(250.299578 399.693966) scale(0.105 -0.105)">
      <defs>
       <path id="DejaVuSans-47" d="M 3809 666 
L 3809 1919 
L 2778 1919 
L 2778 2438 
L 4434 2438 
L 4434 434 
Q 4069 175 3628 42 
Q 3188 -91 2688 -91 
Q 1594 -91 976 548 
Q 359 1188 359 2328 
Q 359 3472 976 4111 
Q 1594 4750 2688 4750 
Q 3144 4750 3555 4637 
Q 3966 4525 4313 4306 
L 4313 3634 
Q 3963 3931 3569 4081 
Q 3175 4231 2741 4231 
Q 1884 4231 1454 3753 
Q 1025 3275 1025 2328 
Q 1025 1384 1454 906 
Q 1884 428 2741 428 
Q 3075 428 3337 486 
Q 3600 544 3809 666 
z
" transform="scale(0.015625)"/>
       <path id="DejaVuSans-45" d="M 628 4666 
L 3578 4666 
L 3578 4134 
L 1259 4134 
L 1259 2753 
L 3481 2753 
L 3481 2222 
L 1259 2222 
L 1259 531 
L 3634 531 
L 3634 0 
L 628 0 
L 628 4666 
z
" transform="scale(0.015625)"/>
       <path id="DejaVuSans-75" d="M 544 1381 
L 544 3500 
L 1119 3500 
L 1119 1403 
Q 1119 906 1312 657 
Q 1506 409 1894 409 
Q 2359 409 2629 706 
Q 2900 1003 2900 1516 
L 2900 3500 
L 3475 3500 
L 3475 0 
L 2900 0 
L 2900 538 
Q 2691 219 2414 64 
Q 2138 -91 1772 -91 
Q 1169 -91 856 284 
Q 544 659 544 1381 
z
M 1991 3584 
L 1991 3584 
z
" transform="scale(0.015625)"/>
       <path id="DejaVuSans-74" d="M 1172 4494 
L 1172 3500 
L 2356 3500 
L 2356 3053 
L 1172 3053 
L 1172 1153 
Q 1172 725 1289 603 
Q 1406 481 1766 481 
L 2356 481 
L 2356 0 
L 1766 0 
Q 1100 0 847 248 
Q 594 497 594 1153 
L 594 3053 
L 172 3053 
L 172 3500 
L 594 3500 
L 594 4494 
L 1172 4494 
z
" transform="scale(0.015625)"/>
       <path id="DejaVuSans-64" d="M 2906 2969 
L 2906 4863 
L 3481 4863 
L 3481 0 
L 2906 0 
L 2906 525 
Q 2725 213 2448 61 
Q 2172 -91 1784 -91 
Q 1150 -91 751 415 
Q 353 922 353 1747 
Q 353 2572 751 3078 
Q 1150 3584 1784 3584 
Q 2172 3584 2448 3432 
Q 2725 3281 2906 2969 
z
M 947 1747 
Q 947 1113 1208 752 
Q 1469 391 1925 391 
Q 2381 391 2643 752 
Q 2906 1113 2906 1747 
Q 2906 2381 2643 2742 
Q 2381 3103 1925 3103 
Q 1469 3103 1208 2742 
Q 947 2381 947 1747 
z
" transform="scale(0.015625)"/>
      </defs>
      <use xlink:href="#DejaVuSans-47"/>
      <use xlink:href="#DejaVuSans-45" transform="translate(77.490234 0)"/>
      <use xlink:href="#DejaVuSans-53" transform="translate(140.673828 0)"/>
      <use xlink:href="#DejaVuSans-20" transform="translate(204.150391 0)"/>
      <use xlink:href="#DejaVuSans-75" transform="translate(235.9375 0)"/>
      <use xlink:href="#DejaVuSans-6e" transform="translate(299.316406 0)"/>
      <use xlink:href="#DejaVuSans-63" transform="translate(362.695312 0)"/>
      <use xlink:href="#DejaVuSans-6f" transform="translate(417.675781 0)"/>
      <use xlink:href="#DejaVuSans-6e" transform="translate(478.857422 0)"/>
      <use xlink:href="#DejaVuSans-73" transform="translate(542.236328 0)"/>
      <use xlink:href="#DejaVuSans-74" transform="translate(594.335938 0)"/>
      <use xlink:href="#DejaVuSans-72" transform="translate(633.544922 0)"/>
      <use xlink:href="#DejaVuSans-61" transform="translate(674.658203 0)"/>
      <use xlink:href="#DejaVuSans-69" transform="translate(735.9375 0)"/>
      <use xlink:href="#DejaVuSans-6e" transform="translate(763.720703 0)"/>
      <use xlink:href="#DejaVuSans-65" transform="translate(827.099609 0)"/>
      <use xlink:href="#DejaVuSans-64" transform="translate(888.623047 0)"/>
     </g>
    </g>
    <g id="line2d_30">
     <path d="M 213.549578 411.430997 
L 227.724578 411.430997 
L 241.899578 411.430997 
" style="fill: none; stroke: #2a9d8f; stroke-width: 2.2; stroke-linecap: square"/>
     <g>
      <use xlink:href="#m93f38d08be" x="227.724578" y="411.430997" style="fill: #2a9d8f; stroke: #2a9d8f; stroke-linejoin: miter"/>
     </g>
    </g>
    <g id="text_19">
     <!-- GES ontology-constrained -->
     <g transform="translate(250.299578 415.105997) scale(0.105 -0.105)">
      <defs>
       <path id="DejaVuSans-67" d="M 2906 1791 
Q 2906 2416 2648 2759 
Q 2391 3103 1925 3103 
Q 1463 3103 1205 2759 
Q 947 2416 947 1791 
Q 947 1169 1205 825 
Q 1463 481 1925 481 
Q 2391 481 2648 825 
Q 2906 1169 2906 1791 
z
M 3481 434 
Q 3481 -459 3084 -895 
Q 2688 -1331 1869 -1331 
Q 1566 -1331 1297 -1286 
Q 1028 -1241 775 -1147 
L 775 -588 
Q 1028 -725 1275 -790 
Q 1522 -856 1778 -856 
Q 2344 -856 2625 -561 
Q 2906 -266 2906 331 
L 2906 616 
Q 2728 306 2450 153 
Q 2172 0 1784 0 
Q 1141 0 747 490 
Q 353 981 353 1791 
Q 353 2603 747 3093 
Q 1141 3584 1784 3584 
Q 2172 3584 2450 3431 
Q 2728 3278 2906 2969 
L 2906 3500 
L 3481 3500 
L 3481 434 
z
" transform="scale(0.015625)"/>
       <path id="DejaVuSans-79" d="M 2059 -325 
Q 1816 -950 1584 -1140 
Q 1353 -1331 966 -1331 
L 506 -1331 
L 506 -850 
L 844 -850 
Q 1081 -850 1212 -737 
Q 1344 -625 1503 -206 
L 1606 56 
L 191 3500 
L 800 3500 
L 1894 763 
L 2988 3500 
L 3597 3500 
L 2059 -325 
z
" transform="scale(0.015625)"/>
       <path id="DejaVuSans-2d" d="M 313 2009 
L 1997 2009 
L 1997 1497 
L 313 1497 
L 313 2009 
z
" transform="scale(0.015625)"/>
      </defs>
      <use xlink:href="#DejaVuSans-47"/>
      <use xlink:href="#DejaVuSans-45" transform="translate(77.490234 0)"/>
      <use xlink:href="#DejaVuSans-53" transform="translate(140.673828 0)"/>
      <use xlink:href="#DejaVuSans-20" transform="translate(204.150391 0)"/>
      <use xlink:href="#DejaVuSans-6f" transform="translate(235.9375 0)"/>
      <use xlink:href="#DejaVuSans-6e" transform="translate(297.119141 0)"/>
      <use xlink:href="#DejaVuSans-74" transform="translate(360.498047 0)"/>
      <use xlink:href="#DejaVuSans-6f" transform="translate(399.707031 0)"/>
      <use xlink:href="#DejaVuSans-6c" transform="translate(460.888672 0)"/>
      <use xlink:href="#DejaVuSans-6f" transform="translate(488.671875 0)"/>
      <use xlink:href="#DejaVuSans-67" transform="translate(549.853516 0)"/>
      <use xlink:href="#DejaVuSans-79" transform="translate(613.330078 0)"/>
      <use xlink:href="#DejaVuSans-2d" transform="translate(670.759766 0)"/>
      <use xlink:href="#DejaVuSans-63" transform="translate(706.84375 0)"/>
      <use xlink:href="#DejaVuSans-6f" transform="translate(761.824219 0)"/>
      <use xlink:href="#DejaVuSans-6e" transform="translate(823.005859 0)"/>
      <use xlink:href="#DejaVuSans-73" transform="translate(886.384766 0)"/>
      <use xlink:href="#DejaVuSans-74" transform="translate(938.484375 0)"/>
      <use xlink:href="#DejaVuSans-72" transform="translate(977.693359 0)"/>
      <use xlink:href="#DejaVuSans-61" transform="translate(1018.806641 0)"/>
      <use xlink:href="#DejaVuSans-69" transform="translate(1080.085938 0)"/>
      <use xlink:href="#DejaVuSans-6e" transform="translate(1107.869141 0)"/>
      <use xlink:href="#DejaVuSans-65" transform="translate(1171.248047 0)"/>
      <use xlink:href="#DejaVuSans-64" transform="translate(1232.771484 0)"/>
     </g>
    </g>
    <g id="line2d_31">
     <path d="M 407.407469 396.018966 
L 421.582469 396.018966 
L 435.757469 396.018966 
" style="fill: none; stroke-dasharray: 8.14,3.52; stroke-dashoffset: 0; stroke: #3b5b92; stroke-width: 2.2"/>
     <g>
      <use xlink:href="#m16bd20fde2" x="421.582469" y="396.018966" style="fill: #3b5b92; stroke: #3b5b92"/>
     </g>
    </g>
    <g id="text_20">
     <!-- PC unconstrained -->
     <g transform="translate(444.157469 399.693966) scale(0.105 -0.105)">
      <defs>
       <path id="DejaVuSans-50" d="M 1259 4147 
L 1259 2394 
L 2053 2394 
Q 2494 2394 2734 2622 
Q 2975 2850 2975 3272 
Q 2975 3691 2734 3919 
Q 2494 4147 2053 4147 
L 1259 4147 
z
M 628 4666 
L 2053 4666 
Q 2838 4666 3239 4311 
Q 3641 3956 3641 3272 
Q 3641 2581 3239 2228 
Q 2838 1875 2053 1875 
L 1259 1875 
L 1259 0 
L 628 0 
L 628 4666 
z
" transform="scale(0.015625)"/>
       <path id="DejaVuSans-43" d="M 4122 4306 
L 4122 3641 
Q 3803 3938 3442 4084 
Q 3081 4231 2675 4231 
Q 1875 4231 1450 3742 
Q 1025 3253 1025 2328 
Q 1025 1406 1450 917 
Q 1875 428 2675 428 
Q 3081 428 3442 575 
Q 3803 722 4122 1019 
L 4122 359 
Q 3791 134 3420 21 
Q 3050 -91 2638 -91 
Q 1578 -91 968 557 
Q 359 1206 359 2328 
Q 359 3453 968 4101 
Q 1578 4750 2638 4750 
Q 3056 4750 3426 4639 
Q 3797 4528 4122 4306 
z
" transform="scale(0.015625)"/>
      </defs>
      <use xlink:href="#DejaVuSans-50"/>
      <use xlink:href="#DejaVuSans-43" transform="translate(60.302734 0)"/>
      <use xlink:href="#DejaVuSans-20" transform="translate(130.126953 0)"/>
      <use xlink:href="#DejaVuSans-75" transform="translate(161.914062 0)"/>
      <use xlink:href="#DejaVuSans-6e" transform="translate(225.292969 0)"/>
      <use xlink:href="#DejaVuSans-63" transform="translate(288.671875 0)"/>
      <use xlink:href="#DejaVuSans-6f" transform="translate(343.652344 0)"/>
      <use xlink:href="#DejaVuSans-6e" transform="translate(404.833984 0)"/>
      <use xlink:href="#DejaVuSans-73" transform="translate(468.212891 0)"/>
      <use xlink:href="#DejaVuSans-74" transform="translate(520.3125 0)"/>
      <use xlink:href="#DejaVuSans-72" transform="translate(559.521484 0)"/>
      <use xlink:href="#DejaVuSans-61" transform="translate(600.634766 0)"/>
      <use xlink:href="#DejaVuSans-69" transform="translate(661.914062 0)"/>
      <use xlink:href="#DejaVuSans-6e" transform="translate(689.697266 0)"/>
      <use xlink:href="#DejaVuSans-65" transform="translate(753.076172 0)"/>
      <use xlink:href="#DejaVuSans-64" transform="translate(814.599609 0)"/>
     </g>
    </g>
    <g id="line2d_32">
     <path d="M 407.407469 411.430997 
L 421.582469 411.430997 
L 435.757469 411.430997 
" style="fill: none; stroke: #3b5b92; stroke-width: 2.2; stroke-linecap: square"/>
     <g>
      <use xlink:href="#m75e5eb340f" x="421.582469" y="411.430997" style="fill: #3b5b92; stroke: #3b5b92; stroke-linejoin: miter"/>
     </g>
    </g>
    <g id="text_21">
     <!-- PC ontology-constrained -->
     <g transform="translate(444.157469 415.105997) scale(0.105 -0.105)">
      <use xlink:href="#DejaVuSans-50"/>
      <use xlink:href="#DejaVuSans-43" transform="translate(60.302734 0)"/>
      <use xlink:href="#DejaVuSans-20" transform="translate(130.126953 0)"/>
      <use xlink:href="#DejaVuSans-6f" transform="translate(161.914062 0)"/>
      <use xlink:href="#DejaVuSans-6e" transform="translate(223.095703 0)"/>
      <use xlink:href="#DejaVuSans-74" transform="translate(286.474609 0)"/>
      <use xlink:href="#DejaVuSans-6f" transform="translate(325.683594 0)"/>
      <use xlink:href="#DejaVuSans-6c" transform="translate(386.865234 0)"/>
      <use xlink:href="#DejaVuSans-6f" transform="translate(414.648438 0)"/>
      <use xlink:href="#DejaVuSans-67" transform="translate(475.830078 0)"/>
      <use xlink:href="#DejaVuSans-79" transform="translate(539.306641 0)"/>
      <use xlink:href="#DejaVuSans-2d" transform="translate(596.736328 0)"/>
      <use xlink:href="#DejaVuSans-63" transform="translate(632.820312 0)"/>
      <use xlink:href="#DejaVuSans-6f" transform="translate(687.800781 0)"/>
      <use xlink:href="#DejaVuSans-6e" transform="translate(748.982422 0)"/>
      <use xlink:href="#DejaVuSans-73" transform="translate(812.361328 0)"/>
      <use xlink:href="#DejaVuSans-74" transform="translate(864.460938 0)"/>
      <use xlink:href="#DejaVuSans-72" transform="translate(903.669922 0)"/>
      <use xlink:href="#DejaVuSans-61" transform="translate(944.783203 0)"/>
      <use xlink:href="#DejaVuSans-69" transform="translate(1006.0625 0)"/>
      <use xlink:href="#DejaVuSans-6e" transform="translate(1033.845703 0)"/>
      <use xlink:href="#DejaVuSans-65" transform="translate(1097.224609 0)"/>
      <use xlink:href="#DejaVuSans-64" transform="translate(1158.748047 0)"/>
     </g>
    </g>
    <g id="line2d_33">
     <path d="M 593.492078 396.018966 
L 607.667078 396.018966 
L 621.842078 396.018966 
" style="fill: none; stroke-dasharray: 8.14,3.52; stroke-dashoffset: 0; stroke: #8a6f3d; stroke-width: 2.2"/>
     <g>
      <use xlink:href="#m656938f2ce" x="607.667078" y="396.018966" style="fill: #8a6f3d; stroke: #8a6f3d"/>
     </g>
    </g>
    <g id="text_22">
     <!-- LiNGAM unconstrained -->
     <g transform="translate(630.242078 399.693966) scale(0.105 -0.105)">
      <defs>
       <path id="DejaVuSans-4c" d="M 628 4666 
L 1259 4666 
L 1259 531 
L 3531 531 
L 3531 0 
L 628 0 
L 628 4666 
z
" transform="scale(0.015625)"/>
       <path id="DejaVuSans-4e" d="M 628 4666 
L 1478 4666 
L 3547 763 
L 3547 4666 
L 4159 4666 
L 4159 0 
L 3309 0 
L 1241 3903 
L 1241 0 
L 628 0 
L 628 4666 
z
" transform="scale(0.015625)"/>
       <path id="DejaVuSans-41" d="M 2188 4044 
L 1331 1722 
L 3047 1722 
L 2188 4044 
z
M 1831 4666 
L 2547 4666 
L 4325 0 
L 3669 0 
L 3244 1197 
L 1141 1197 
L 716 0 
L 50 0 
L 1831 4666 
z
" transform="scale(0.015625)"/>
       <path id="DejaVuSans-4d" d="M 628 4666 
L 1569 4666 
L 2759 1491 
L 3956 4666 
L 4897 4666 
L 4897 0 
L 4281 0 
L 4281 4097 
L 3078 897 
L 2444 897 
L 1241 4097 
L 1241 0 
L 628 0 
L 628 4666 
z
" transform="scale(0.015625)"/>
      </defs>
      <use xlink:href="#DejaVuSans-4c"/>
      <use xlink:href="#DejaVuSans-69" transform="translate(55.712891 0)"/>
      <use xlink:href="#DejaVuSans-4e" transform="translate(83.496094 0)"/>
      <use xlink:href="#DejaVuSans-47" transform="translate(158.300781 0)"/>
      <use xlink:href="#DejaVuSans-41" transform="translate(235.791016 0)"/>
      <use xlink:href="#DejaVuSans-4d" transform="translate(304.199219 0)"/>
      <use xlink:href="#DejaVuSans-20" transform="translate(390.478516 0)"/>
      <use xlink:href="#DejaVuSans-75" transform="translate(422.265625 0)"/>
      <use xlink:href="#DejaVuSans-6e" transform="translate(485.644531 0)"/>
      <use xlink:href="#DejaVuSans-63" transform="translate(549.023438 0)"/>
      <use xlink:href="#DejaVuSans-6f" transform="translate(604.003906 0)"/>
      <use xlink:href="#DejaVuSans-6e" transform="translate(665.185547 0)"/>
      <use xlink:href="#DejaVuSans-73" transform="translate(728.564453 0)"/>
      <use xlink:href="#DejaVuSans-74" transform="translate(780.664062 0)"/>
      <use xlink:href="#DejaVuSans-72" transform="translate(819.873047 0)"/>
      <use xlink:href="#DejaVuSans-61" transform="translate(860.986328 0)"/>
      <use xlink:href="#DejaVuSans-69" transform="translate(922.265625 0)"/>
      <use xlink:href="#DejaVuSans-6e" transform="translate(950.048828 0)"/>
      <use xlink:href="#DejaVuSans-65" transform="translate(1013.427734 0)"/>
      <use xlink:href="#DejaVuSans-64" transform="translate(1074.951172 0)"/>
     </g>
    </g>
    <g id="line2d_34">
     <path d="M 593.492078 411.430997 
L 607.667078 411.430997 
L 621.842078 411.430997 
" style="fill: none; stroke: #8a6f3d; stroke-width: 2.2; stroke-linecap: square"/>
     <g>
      <use xlink:href="#m0e826f0061" x="607.667078" y="411.430997" style="fill: #8a6f3d; stroke: #8a6f3d; stroke-linejoin: miter"/>
     </g>
    </g>
    <g id="text_23">
     <!-- LiNGAM ontology-constrained -->
     <g transform="translate(630.242078 415.105997) scale(0.105 -0.105)">
      <use xlink:href="#DejaVuSans-4c"/>
      <use xlink:href="#DejaVuSans-69" transform="translate(55.712891 0)"/>
      <use xlink:href="#DejaVuSans-4e" transform="translate(83.496094 0)"/>
      <use xlink:href="#DejaVuSans-47" transform="translate(158.300781 0)"/>
      <use xlink:href="#DejaVuSans-41" transform="translate(235.791016 0)"/>
      <use xlink:href="#DejaVuSans-4d" transform="translate(304.199219 0)"/>
      <use xlink:href="#DejaVuSans-20" transform="translate(390.478516 0)"/>
      <use xlink:href="#DejaVuSans-6f" transform="translate(422.265625 0)"/>
      <use xlink:href="#DejaVuSans-6e" transform="translate(483.447266 0)"/>
      <use xlink:href="#DejaVuSans-74" transform="translate(546.826172 0)"/>
      <use xlink:href="#DejaVuSans-6f" transform="translate(586.035156 0)"/>
      <use xlink:href="#DejaVuSans-6c" transform="translate(647.216797 0)"/>
      <use xlink:href="#DejaVuSans-6f" transform="translate(675 0)"/>
      <use xlink:href="#DejaVuSans-67" transform="translate(736.181641 0)"/>
      <use xlink:href="#DejaVuSans-79" transform="translate(799.658203 0)"/>
      <use xlink:href="#DejaVuSans-2d" transform="translate(857.087891 0)"/>
      <use xlink:href="#DejaVuSans-63" transform="translate(893.171875 0)"/>
      <use xlink:href="#DejaVuSans-6f" transform="translate(948.152344 0)"/>
      <use xlink:href="#DejaVuSans-6e" transform="translate(1009.333984 0)"/>
      <use xlink:href="#DejaVuSans-73" transform="translate(1072.712891 0)"/>
      <use xlink:href="#DejaVuSans-74" transform="translate(1124.8125 0)"/>
      <use xlink:href="#DejaVuSans-72" transform="translate(1164.021484 0)"/>
      <use xlink:href="#DejaVuSans-61" transform="translate(1205.134766 0)"/>
      <use xlink:href="#DejaVuSans-69" transform="translate(1266.414062 0)"/>
      <use xlink:href="#DejaVuSans-6e" transform="translate(1294.197266 0)"/>
      <use xlink:href="#DejaVuSans-65" transform="translate(1357.576172 0)"/>
      <use xlink:href="#DejaVuSans-64" transform="translate(1419.099609 0)"/>
     </g>
    </g>
   </g>
  </g>
  <g id="text_24">
   <!-- Constrained discovery maintains higher F1 across sample sizes. -->
   <g style="fill: #111827" transform="translate(260.519727 498.521219) scale(0.125 -0.125)">
    <defs>
     <path id="DejaVuSans-76" d="M 191 3500 
L 800 3500 
L 1894 563 
L 2988 3500 
L 3597 3500 
L 2284 0 
L 1503 0 
L 191 3500 
z
" transform="scale(0.015625)"/>
     <path id="DejaVuSans-68" d="M 3513 2113 
L 3513 0 
L 2938 0 
L 2938 2094 
Q 2938 2591 2744 2837 
Q 2550 3084 2163 3084 
Q 1697 3084 1428 2787 
Q 1159 2491 1159 1978 
L 1159 0 
L 581 0 
L 581 4863 
L 1159 4863 
L 1159 2956 
Q 1366 3272 1645 3428 
Q 1925 3584 2291 3584 
Q 2894 3584 3203 3211 
Q 3513 2838 3513 2113 
z
" transform="scale(0.015625)"/>
    </defs>
    <use xlink:href="#DejaVuSans-43"/>
    <use xlink:href="#DejaVuSans-6f" transform="translate(69.824219 0)"/>
    <use xlink:href="#DejaVuSans-6e" transform="translate(131.005859 0)"/>
    <use xlink:href="#DejaVuSans-73" transform="translate(194.384766 0)"/>
    <use xlink:href="#DejaVuSans-74" transform="translate(246.484375 0)"/>
    <use xlink:href="#DejaVuSans-72" transform="translate(285.693359 0)"/>
    <use xlink:href="#DejaVuSans-61" transform="translate(326.806641 0)"/>
    <use xlink:href="#DejaVuSans-69" transform="translate(388.085938 0)"/>
    <use xlink:href="#DejaVuSans-6e" transform="translate(415.869141 0)"/>
    <use xlink:href="#DejaVuSans-65" transform="translate(479.248047 0)"/>
    <use xlink:href="#DejaVuSans-64" transform="translate(540.771484 0)"/>
    <use xlink:href="#DejaVuSans-20" transform="translate(604.248047 0)"/>
    <use xlink:href="#DejaVuSans-64" transform="translate(636.035156 0)"/>
    <use xlink:href="#DejaVuSans-69" transform="translate(699.511719 0)"/>
    <use xlink:href="#DejaVuSans-73" transform="translate(727.294922 0)"/>
    <use xlink:href="#DejaVuSans-63" transform="translate(779.394531 0)"/>
    <use xlink:href="#DejaVuSans-6f" transform="translate(834.375 0)"/>
    <use xlink:href="#DejaVuSans-76" transform="translate(895.556641 0)"/>
    <use xlink:href="#DejaVuSans-65" transform="translate(954.736328 0)"/>
    <use xlink:href="#DejaVuSans-72" transform="translate(1016.259766 0)"/>
    <use xlink:href="#DejaVuSans-79" transform="translate(1057.373047 0)"/>
    <use xlink:href="#DejaVuSans-20" transform="translate(1116.552734 0)"/>
    <use xlink:href="#DejaVuSans-6d" transform="translate(1148.339844 0)"/>
    <use xlink:href="#DejaVuSans-61" transform="translate(1245.751953 0)"/>
    <use xlink:href="#DejaVuSans-69" transform="translate(1307.03125 0)"/>
    <use xlink:href="#DejaVuSans-6e" transform="translate(1334.814453 0)"/>
    <use xlink:href="#DejaVuSans-74" transform="translate(1398.193359 0)"/>
    <use xlink:href="#DejaVuSans-61" transform="translate(1437.402344 0)"/>
    <use xlink:href="#DejaVuSans-69" transform="translate(1498.681641 0)"/>
    <use xlink:href="#DejaVuSans-6e" transform="translate(1526.464844 0)"/>
    <use xlink:href="#DejaVuSans-73" transform="translate(1589.84375 0)"/>
    <use xlink:href="#DejaVuSans-20" transform="translate(1641.943359 0)"/>
    <use xlink:href="#DejaVuSans-68" transform="translate(1673.730469 0)"/>
    <use xlink:href="#DejaVuSans-69" transform="translate(1737.109375 0)"/>
    <use xlink:href="#DejaVuSans-67" transform="translate(1764.892578 0)"/>
    <use xlink:href="#DejaVuSans-68" transform="translate(1828.369141 0)"/>
    <use xlink:href="#DejaVuSans-65" transform="translate(1891.748047 0)"/>
    <use xlink:href="#DejaVuSans-72" transform="translate(1953.271484 0)"/>
    <use xlink:href="#DejaVuSans-20" transform="translate(1994.384766 0)"/>
    <use xlink:href="#DejaVuSans-46" transform="translate(2026.171875 0)"/>
    <use xlink:href="#DejaVuSans-31" transform="translate(2083.691406 0)"/>
    <use xlink:href="#DejaVuSans-20" transform="translate(2147.314453 0)"/>
    <use xlink:href="#DejaVuSans-61" transform="translate(2179.101562 0)"/>
    <use xlink:href="#DejaVuSans-63" transform="translate(2240.380859 0)"/>
    <use xlink:href="#DejaVuSans-72" transform="translate(2295.361328 0)"/>
    <use xlink:href="#DejaVuSans-6f" transform="translate(2334.224609 0)"/>
    <use xlink:href="#DejaVuSans-73" transform="translate(2395.40625 0)"/>
    <use xlink:href="#DejaVuSans-73" transform="translate(2447.505859 0)"/>
    <use xlink:href="#DejaVuSans-20" transform="translate(2499.605469 0)"/>
    <use xlink:href="#DejaVuSans-73" transform="translate(2531.392578 0)"/>
    <use xlink:href="#DejaVuSans-61" transform="translate(2583.492188 0)"/>
    <use xlink:href="#DejaVuSans-6d" transform="translate(2644.771484 0)"/>
    <use xlink:href="#DejaVuSans-70" transform="translate(2742.183594 0)"/>
    <use xlink:href="#DejaVuSans-6c" transform="translate(2805.660156 0)"/>
    <use xlink:href="#DejaVuSans-65" transform="translate(2833.443359 0)"/>
    <use xlink:href="#DejaVuSans-20" transform="translate(2894.966797 0)"/>
    <use xlink:href="#DejaVuSans-73" transform="translate(2926.753906 0)"/>
    <use xlink:href="#DejaVuSans-69" transform="translate(2978.853516 0)"/>
    <use xlink:href="#DejaVuSans-7a" transform="translate(3006.636719 0)"/>
    <use xlink:href="#DejaVuSans-65" transform="translate(3059.126953 0)"/>
    <use xlink:href="#DejaVuSans-73" transform="translate(3120.650391 0)"/>
    <use xlink:href="#DejaVuSans-2e" transform="translate(3172.75 0)"/>
   </g>
  </g>
 </g>
 <defs>
  <clipPath id="pff96867ce3">
   <rect x="102.488" y="72.304" width="794.488" height="290.52104"/>
  </clipPath>
 </defs>
</svg>
